# Blender 4.0.2
# www.blender.org
mtllib gizmo_rotate.mtl
o Torus
v 1.002116 0.000000 0.000000
v 1.001221 0.003340 0.000000
v 0.998776 0.005786 0.000000
v 0.995435 0.006681 0.000000
v 0.992095 0.005786 0.000000
v 0.989650 0.003340 0.000000
v 0.988755 0.000000 0.000000
v 0.989650 -0.003340 0.000000
v 0.992095 -0.005786 0.000000
v 0.995435 -0.006681 0.000000
v 0.998776 -0.005786 0.000000
v 1.001221 -0.003340 0.000000
v 0.993543 0.000000 -0.130802
v 0.992655 0.003340 -0.130686
v 0.990231 0.005786 -0.130366
v 0.986919 0.006681 -0.129930
v 0.983607 0.005786 -0.129494
v 0.981183 0.003340 -0.129175
v 0.980296 0.000000 -0.129058
v 0.981183 -0.003340 -0.129175
v 0.983607 -0.005786 -0.129494
v 0.986919 -0.006681 -0.129930
v 0.990231 -0.005786 -0.130366
v 0.992655 -0.003340 -0.130686
v 0.967970 0.000000 -0.259367
v 0.967105 0.003340 -0.259135
v 0.964743 0.005786 -0.258502
v 0.961517 0.006681 -0.257638
v 0.958290 0.005786 -0.256773
v 0.955928 0.003340 -0.256140
v 0.955064 0.000000 -0.255908
v 0.955928 -0.003340 -0.256140
v 0.958290 -0.005786 -0.256773
v 0.961517 -0.006681 -0.257638
v 0.964743 -0.005786 -0.258502
v 0.967105 -0.003340 -0.259135
v 0.925835 0.000000 -0.383493
v 0.925008 0.003340 -0.383151
v 0.922749 0.005786 -0.382215
v 0.919662 0.006681 -0.380937
v 0.916576 0.005786 -0.379658
v 0.914317 0.003340 -0.378722
v 0.913490 0.000000 -0.378380
v 0.914317 -0.003340 -0.378722
v 0.916576 -0.005786 -0.379658
v 0.919662 -0.006681 -0.380937
v 0.922749 -0.005786 -0.382215
v 0.925008 -0.003340 -0.383151
v 0.867858 0.000000 -0.501058
v 0.867083 0.003340 -0.500611
v 0.864965 0.005786 -0.499388
v 0.862072 0.006681 -0.497718
v 0.859179 0.005786 -0.496048
v 0.857062 0.003340 -0.494825
v 0.856287 0.000000 -0.494377
v 0.857062 -0.003340 -0.494825
v 0.859179 -0.005786 -0.496048
v 0.862072 -0.006681 -0.497718
v 0.864965 -0.005786 -0.499388
v 0.867083 -0.003340 -0.500611
v 0.795032 0.000000 -0.610050
v 0.794322 0.003340 -0.609505
v 0.792382 0.005786 -0.608016
v 0.789732 0.006681 -0.605983
v 0.787082 0.005786 -0.603949
v 0.785142 0.003340 -0.602460
v 0.784432 0.000000 -0.601916
v 0.785142 -0.003340 -0.602460
v 0.787082 -0.005786 -0.603949
v 0.789732 -0.006681 -0.605983
v 0.792382 -0.005786 -0.608016
v 0.794322 -0.003340 -0.609505
v 0.708603 0.000000 -0.708603
v 0.707970 0.003340 -0.707970
v 0.706241 0.005786 -0.706241
v 0.703879 0.006681 -0.703879
v 0.701517 0.005786 -0.701517
v 0.699788 0.003340 -0.699788
v 0.699155 0.000000 -0.699155
v 0.699788 -0.003340 -0.699788
v 0.701517 -0.005786 -0.701517
v 0.703879 -0.006681 -0.703879
v 0.706241 -0.005786 -0.706241
v 0.707970 -0.003340 -0.707970
v 0.610050 0.000000 -0.795032
v 0.609505 0.003340 -0.794322
v 0.608016 0.005786 -0.792382
v 0.605983 0.006681 -0.789732
v 0.603949 0.005786 -0.787082
v 0.602461 0.003340 -0.785142
v 0.601916 0.000000 -0.784432
v 0.602461 -0.003340 -0.785142
v 0.603949 -0.005786 -0.787082
v 0.605983 -0.006681 -0.789732
v 0.608016 -0.005786 -0.792382
v 0.609505 -0.003340 -0.794322
v 0.501058 0.000000 -0.867858
v 0.500610 0.003340 -0.867083
v 0.499388 0.005786 -0.864965
v 0.497718 0.006681 -0.862072
v 0.496047 0.005786 -0.859179
v 0.494825 0.003340 -0.857062
v 0.494377 0.000000 -0.856287
v 0.494825 -0.003340 -0.857062
v 0.496047 -0.005786 -0.859179
v 0.497718 -0.006681 -0.862072
v 0.499388 -0.005786 -0.864965
v 0.500610 -0.003340 -0.867083
v 0.383493 0.000000 -0.925834
v 0.383151 0.003340 -0.925008
v 0.382215 0.005786 -0.922748
v 0.380937 0.006681 -0.919662
v 0.379659 0.005786 -0.916576
v 0.378723 0.003340 -0.914317
v 0.378380 0.000000 -0.913490
v 0.378723 -0.003340 -0.914317
v 0.379659 -0.005786 -0.916576
v 0.380937 -0.006681 -0.919662
v 0.382215 -0.005786 -0.922748
v 0.383151 -0.003340 -0.925008
v 0.259367 0.000000 -0.967970
v 0.259135 0.003340 -0.967105
v 0.258502 0.005786 -0.964743
v 0.257638 0.006681 -0.961517
v 0.256773 0.005786 -0.958290
v 0.256140 0.003340 -0.955928
v 0.255909 0.000000 -0.955064
v 0.256140 -0.003340 -0.955928
v 0.256773 -0.005786 -0.958290
v 0.257638 -0.006681 -0.961517
v 0.258502 -0.005786 -0.964743
v 0.259135 -0.003340 -0.967105
v 0.130802 0.000000 -0.993543
v 0.130685 0.003340 -0.992655
v 0.130366 0.005786 -0.990231
v 0.129930 0.006681 -0.986919
v 0.129494 0.005786 -0.983607
v 0.129175 0.003340 -0.981183
v 0.129058 0.000000 -0.980296
v 0.129175 -0.003340 -0.981183
v 0.129494 -0.005786 -0.983607
v 0.129930 -0.006681 -0.986919
v 0.130366 -0.005786 -0.990231
v 0.130685 -0.003340 -0.992655
v 0.000000 0.000000 -1.002116
v 0.000000 0.003340 -1.001221
v 0.000000 0.005786 -0.998776
v 0.000000 0.006681 -0.995435
v 0.000000 0.005786 -0.992095
v 0.000000 0.003340 -0.989650
v 0.000000 0.000000 -0.988755
v 0.000000 -0.003340 -0.989650
v 0.000000 -0.005786 -0.992095
v 0.000000 -0.006681 -0.995435
v 0.000000 -0.005786 -0.998776
v 0.000000 -0.003340 -1.001221
v -0.130803 0.000000 -0.993543
v -0.130686 0.003340 -0.992655
v -0.130367 0.005786 -0.990231
v -0.129931 0.006681 -0.986919
v -0.129495 0.005786 -0.983607
v -0.129175 0.003340 -0.981183
v -0.129059 0.000000 -0.980296
v -0.129175 -0.003340 -0.981183
v -0.129495 -0.005786 -0.983607
v -0.129931 -0.006681 -0.986919
v -0.130367 -0.005786 -0.990231
v -0.130686 -0.003340 -0.992655
v -0.259367 0.000000 -0.967970
v -0.259135 0.003340 -0.967105
v -0.258502 0.005786 -0.964743
v -0.257638 0.006681 -0.961517
v -0.256773 0.005786 -0.958290
v -0.256140 0.003340 -0.955928
v -0.255908 0.000000 -0.955064
v -0.256140 -0.003340 -0.955928
v -0.256773 -0.005786 -0.958290
v -0.257638 -0.006681 -0.961517
v -0.258502 -0.005786 -0.964743
v -0.259135 -0.003340 -0.967105
v -0.383493 0.000000 -0.925834
v -0.383151 0.003340 -0.925008
v -0.382215 0.005786 -0.922748
v -0.380937 0.006681 -0.919662
v -0.379658 0.005786 -0.916576
v -0.378723 0.003340 -0.914317
v -0.378380 0.000000 -0.913490
v -0.378723 -0.003340 -0.914317
v -0.379658 -0.005786 -0.916576
v -0.380937 -0.006681 -0.919662
v -0.382215 -0.005786 -0.922748
v -0.383151 -0.003340 -0.925008
v -0.501058 0.000000 -0.867858
v -0.500610 0.003340 -0.867083
v -0.499388 0.005786 -0.864965
v -0.497717 0.006681 -0.862072
v -0.496047 0.005786 -0.859180
v -0.494825 0.003340 -0.857062
v -0.494377 0.000000 -0.856287
v -0.494825 -0.003340 -0.857062
v -0.496047 -0.005786 -0.859180
v -0.497717 -0.006681 -0.862072
v -0.499388 -0.005786 -0.864965
v -0.500610 -0.003340 -0.867083
v -0.610050 0.000000 -0.795032
v -0.609505 0.003340 -0.794322
v -0.608016 0.005786 -0.792382
v -0.605983 0.006681 -0.789732
v -0.603949 0.005786 -0.787082
v -0.602461 0.003340 -0.785142
v -0.601916 0.000000 -0.784432
v -0.602461 -0.003340 -0.785142
v -0.603949 -0.005786 -0.787082
v -0.605983 -0.006681 -0.789732
v -0.608016 -0.005786 -0.792382
v -0.609505 -0.003340 -0.794322
v -0.708603 0.000000 -0.708603
v -0.707970 0.003340 -0.707970
v -0.706241 0.005786 -0.706241
v -0.703879 0.006681 -0.703879
v -0.701517 0.005786 -0.701517
v -0.699788 0.003340 -0.699788
v -0.699155 0.000000 -0.699155
v -0.699788 -0.003340 -0.699788
v -0.701517 -0.005786 -0.701517
v -0.703879 -0.006681 -0.703879
v -0.706241 -0.005786 -0.706241
v -0.707970 -0.003340 -0.707970
v -0.795032 0.000000 -0.610050
v -0.794322 0.003340 -0.609505
v -0.792382 0.005786 -0.608016
v -0.789732 0.006681 -0.605983
v -0.787082 0.005786 -0.603949
v -0.785142 0.003340 -0.602461
v -0.784432 0.000000 -0.601916
v -0.785142 -0.003340 -0.602461
v -0.787082 -0.005786 -0.603949
v -0.789732 -0.006681 -0.605983
v -0.792382 -0.005786 -0.608016
v -0.794322 -0.003340 -0.609505
v -0.867858 0.000000 -0.501058
v -0.867083 0.003340 -0.500611
v -0.864965 0.005786 -0.499388
v -0.862072 0.006681 -0.497718
v -0.859179 0.005786 -0.496048
v -0.857062 0.003340 -0.494825
v -0.856286 0.000000 -0.494378
v -0.857062 -0.003340 -0.494825
v -0.859179 -0.005786 -0.496048
v -0.862072 -0.006681 -0.497718
v -0.864965 -0.005786 -0.499388
v -0.867083 -0.003340 -0.500611
v -0.925834 0.000000 -0.383493
v -0.925008 0.003340 -0.383151
v -0.922748 0.005786 -0.382215
v -0.919662 0.006681 -0.380937
v -0.916576 0.005786 -0.379658
v -0.914317 0.003340 -0.378723
v -0.913490 0.000000 -0.378380
v -0.914317 -0.003340 -0.378723
v -0.916576 -0.005786 -0.379658
v -0.919662 -0.006681 -0.380937
v -0.922748 -0.005786 -0.382215
v -0.925008 -0.003340 -0.383151
v -0.967970 0.000000 -0.259367
v -0.967105 0.003340 -0.259135
v -0.964743 0.005786 -0.258502
v -0.961517 0.006681 -0.257638
v -0.958290 0.005786 -0.256773
v -0.955928 0.003340 -0.256140
v -0.955064 0.000000 -0.255908
v -0.955928 -0.003340 -0.256140
v -0.958290 -0.005786 -0.256773
v -0.961517 -0.006681 -0.257638
v -0.964743 -0.005786 -0.258502
v -0.967105 -0.003340 -0.259135
v -0.993543 0.000000 -0.130803
v -0.992655 0.003340 -0.130686
v -0.990231 0.005786 -0.130367
v -0.986919 0.006681 -0.129931
v -0.983607 0.005786 -0.129495
v -0.981183 0.003340 -0.129175
v -0.980296 0.000000 -0.129058
v -0.981183 -0.003340 -0.129175
v -0.983607 -0.005786 -0.129495
v -0.986919 -0.006681 -0.129931
v -0.990231 -0.005786 -0.130367
v -0.992655 -0.003340 -0.130686
v -1.002116 0.000000 -0.000000
v -1.001221 0.003340 -0.000000
v -0.998776 0.005786 -0.000000
v -0.995435 0.006681 -0.000000
v -0.992095 0.005786 -0.000000
v -0.989650 0.003340 -0.000000
v -0.988755 0.000000 -0.000000
v -0.989650 -0.003340 -0.000000
v -0.992095 -0.005786 -0.000000
v -0.995435 -0.006681 -0.000000
v -0.998776 -0.005786 -0.000000
v -1.001221 -0.003340 -0.000000
v -0.993543 0.000000 0.130803
v -0.992655 0.003340 0.130686
v -0.990231 0.005786 0.130367
v -0.986919 0.006681 0.129931
v -0.983607 0.005786 0.129495
v -0.981183 0.003340 0.129175
v -0.980296 0.000000 0.129058
v -0.981183 -0.003340 0.129175
v -0.983607 -0.005786 0.129495
v -0.986919 -0.006681 0.129931
v -0.990231 -0.005786 0.130367
v -0.992655 -0.003340 0.130686
v -0.967970 0.000000 0.259367
v -0.967105 0.003340 0.259135
v -0.964743 0.005786 0.258502
v -0.961517 0.006681 0.257638
v -0.958290 0.005786 0.256773
v -0.955928 0.003340 0.256140
v -0.955064 0.000000 0.255908
v -0.955928 -0.003340 0.256140
v -0.958290 -0.005786 0.256773
v -0.961517 -0.006681 0.257638
v -0.964743 -0.005786 0.258502
v -0.967105 -0.003340 0.259135
v -0.925835 0.000000 0.383493
v -0.925008 0.003340 0.383150
v -0.922749 0.005786 0.382215
v -0.919662 0.006681 0.380936
v -0.916576 0.005786 0.379658
v -0.914317 0.003340 0.378722
v -0.913490 0.000000 0.378380
v -0.914317 -0.003340 0.378722
v -0.916576 -0.005786 0.379658
v -0.919662 -0.006681 0.380936
v -0.922749 -0.005786 0.382215
v -0.925008 -0.003340 0.383150
v -0.867858 0.000000 0.501058
v -0.867083 0.003340 0.500610
v -0.864965 0.005786 0.499388
v -0.862072 0.006681 0.497717
v -0.859180 0.005786 0.496047
v -0.857062 0.003340 0.494825
v -0.856287 0.000000 0.494377
v -0.857062 -0.003340 0.494825
v -0.859180 -0.005786 0.496047
v -0.862072 -0.006681 0.497717
v -0.864965 -0.005786 0.499388
v -0.867083 -0.003340 0.500610
v -0.795032 0.000000 0.610050
v -0.794322 0.003340 0.609505
v -0.792382 0.005786 0.608016
v -0.789732 0.006681 0.605983
v -0.787082 0.005786 0.603949
v -0.785142 0.003340 0.602461
v -0.784432 0.000000 0.601916
v -0.785142 -0.003340 0.602461
v -0.787082 -0.005786 0.603949
v -0.789732 -0.006681 0.605983
v -0.792382 -0.005786 0.608016
v -0.794322 -0.003340 0.609505
v -0.708603 0.000000 0.708603
v -0.707970 0.003340 0.707970
v -0.706241 0.005786 0.706241
v -0.703879 0.006681 0.703879
v -0.701517 0.005786 0.701517
v -0.699788 0.003340 0.699788
v -0.699155 0.000000 0.699155
v -0.699788 -0.003340 0.699788
v -0.701517 -0.005786 0.701517
v -0.703879 -0.006681 0.703879
v -0.706241 -0.005786 0.706241
v -0.707970 -0.003340 0.707970
v -0.610050 0.000000 0.795032
v -0.609505 0.003340 0.794322
v -0.608017 0.005786 0.792382
v -0.605983 0.006681 0.789732
v -0.603950 0.005786 0.787081
v -0.602461 0.003340 0.785142
v -0.601916 0.000000 0.784431
v -0.602461 -0.003340 0.785142
v -0.603950 -0.005786 0.787081
v -0.605983 -0.006681 0.789732
v -0.608017 -0.005786 0.792382
v -0.609505 -0.003340 0.794322
v -0.501058 0.000000 0.867858
v -0.500610 0.003340 0.867083
v -0.499388 0.005786 0.864965
v -0.497717 0.006681 0.862072
v -0.496047 0.005786 0.859180
v -0.494825 0.003340 0.857062
v -0.494377 0.000000 0.856287
v -0.494825 -0.003340 0.857062
v -0.496047 -0.005786 0.859180
v -0.497717 -0.006681 0.862072
v -0.499388 -0.005786 0.864965
v -0.500610 -0.003340 0.867083
v -0.383493 0.000000 0.925834
v -0.383151 0.003340 0.925008
v -0.382215 0.005786 0.922748
v -0.380937 0.006681 0.919662
v -0.379658 0.005786 0.916576
v -0.378723 0.003340 0.914317
v -0.378380 0.000000 0.913490
v -0.378723 -0.003340 0.914317
v -0.379658 -0.005786 0.916576
v -0.380937 -0.006681 0.919662
v -0.382215 -0.005786 0.922748
v -0.383151 -0.003340 0.925008
v -0.259367 0.000000 0.967970
v -0.259135 0.003340 0.967105
v -0.258503 0.005786 0.964743
v -0.257638 0.006681 0.961517
v -0.256773 0.005786 0.958290
v -0.256141 0.003340 0.955928
v -0.255909 0.000000 0.955063
v -0.256141 -0.003340 0.955928
v -0.256773 -0.005786 0.958290
v -0.257638 -0.006681 0.961517
v -0.258503 -0.005786 0.964743
v -0.259135 -0.003340 0.967105
v -0.130803 0.000000 0.993543
v -0.130686 0.003340 0.992655
v -0.130367 0.005786 0.990231
v -0.129931 0.006681 0.986919
v -0.129495 0.005786 0.983607
v -0.129176 0.003340 0.981183
v -0.129059 0.000000 0.980296
v -0.129176 -0.003340 0.981183
v -0.129495 -0.005786 0.983607
v -0.129931 -0.006681 0.986919
v -0.130367 -0.005786 0.990231
v -0.130686 -0.003340 0.992655
v 0.000000 0.000000 1.002116
v 0.000000 0.003340 1.001221
v 0.000000 0.005786 0.998776
v 0.000000 0.006681 0.995435
v 0.000000 0.005786 0.992095
v 0.000000 0.003340 0.989650
v 0.000000 0.000000 0.988755
v 0.000000 -0.003340 0.989650
v 0.000000 -0.005786 0.992095
v 0.000000 -0.006681 0.995435
v 0.000000 -0.005786 0.998776
v 0.000000 -0.003340 1.001221
v 0.130802 0.000000 0.993543
v 0.130685 0.003340 0.992655
v 0.130366 0.005786 0.990231
v 0.129930 0.006681 0.986919
v 0.129494 0.005786 0.983607
v 0.129175 0.003340 0.981183
v 0.129058 0.000000 0.980296
v 0.129175 -0.003340 0.981183
v 0.129494 -0.005786 0.983607
v 0.129930 -0.006681 0.986919
v 0.130366 -0.005786 0.990231
v 0.130685 -0.003340 0.992655
v 0.259366 0.000000 0.967970
v 0.259135 0.003340 0.967105
v 0.258502 0.005786 0.964743
v 0.257637 0.006681 0.961517
v 0.256773 0.005786 0.958290
v 0.256140 0.003340 0.955928
v 0.255908 0.000000 0.955064
v 0.256140 -0.003340 0.955928
v 0.256773 -0.005786 0.958290
v 0.257637 -0.006681 0.961517
v 0.258502 -0.005786 0.964743
v 0.259135 -0.003340 0.967105
v 0.383493 0.000000 0.925834
v 0.383151 0.003340 0.925008
v 0.382215 0.005786 0.922748
v 0.380937 0.006681 0.919662
v 0.379659 0.005786 0.916576
v 0.378723 0.003340 0.914317
v 0.378380 0.000000 0.913490
v 0.378723 -0.003340 0.914317
v 0.379659 -0.005786 0.916576
v 0.380937 -0.006681 0.919662
v 0.382215 -0.005786 0.922748
v 0.383151 -0.003340 0.925008
v 0.501058 0.000000 0.867858
v 0.500610 0.003340 0.867083
v 0.499388 0.005786 0.864965
v 0.497718 0.006681 0.862072
v 0.496047 0.005786 0.859179
v 0.494825 0.003340 0.857062
v 0.494377 0.000000 0.856287
v 0.494825 -0.003340 0.857062
v 0.496047 -0.005786 0.859179
v 0.497718 -0.006681 0.862072
v 0.499388 -0.005786 0.864965
v 0.500610 -0.003340 0.867083
v 0.610049 0.000000 0.795032
v 0.609505 0.003340 0.794322
v 0.608016 0.005786 0.792382
v 0.605982 0.006681 0.789732
v 0.603949 0.005786 0.787082
v 0.602460 0.003340 0.785142
v 0.601915 0.000000 0.784432
v 0.602460 -0.003340 0.785142
v 0.603949 -0.005786 0.787082
v 0.605982 -0.006681 0.789732
v 0.608016 -0.005786 0.792382
v 0.609505 -0.003340 0.794322
v 0.708603 0.000000 0.708604
v 0.707970 0.003340 0.707971
v 0.706241 0.005786 0.706241
v 0.703879 0.006681 0.703879
v 0.701517 0.005786 0.701517
v 0.699788 0.003340 0.699788
v 0.699155 0.000000 0.699156
v 0.699788 -0.003340 0.699788
v 0.701517 -0.005786 0.701517
v 0.703879 -0.006681 0.703879
v 0.706241 -0.005786 0.706241
v 0.707970 -0.003340 0.707971
v 0.795032 0.000000 0.610050
v 0.794322 0.003340 0.609505
v 0.792382 0.005786 0.608016
v 0.789732 0.006681 0.605983
v 0.787082 0.005786 0.603949
v 0.785142 0.003340 0.602460
v 0.784432 0.000000 0.601916
v 0.785142 -0.003340 0.602460
v 0.787082 -0.005786 0.603949
v 0.789732 -0.006681 0.605983
v 0.792382 -0.005786 0.608016
v 0.794322 -0.003340 0.609505
v 0.867858 0.000000 0.501058
v 0.867083 0.003340 0.500611
v 0.864965 0.005786 0.499388
v 0.862072 0.006681 0.497718
v 0.859179 0.005786 0.496048
v 0.857062 0.003340 0.494825
v 0.856287 0.000000 0.494377
v 0.857062 -0.003340 0.494825
v 0.859179 -0.005786 0.496048
v 0.862072 -0.006681 0.497718
v 0.864965 -0.005786 0.499388
v 0.867083 -0.003340 0.500611
v 0.925834 0.000000 0.383494
v 0.925008 0.003340 0.383151
v 0.922748 0.005786 0.382215
v 0.919662 0.006681 0.380937
v 0.916576 0.005786 0.379659
v 0.914317 0.003340 0.378723
v 0.913490 0.000000 0.378380
v 0.914317 -0.003340 0.378723
v 0.916576 -0.005786 0.379659
v 0.919662 -0.006681 0.380937
v 0.922748 -0.005786 0.382215
v 0.925008 -0.003340 0.383151
v 0.967970 0.000000 0.259366
v 0.967105 0.003340 0.259135
v 0.964743 0.005786 0.258502
v 0.961517 0.006681 0.257637
v 0.958290 0.005786 0.256773
v 0.955928 0.003340 0.256140
v 0.955064 0.000000 0.255908
v 0.955928 -0.003340 0.256140
v 0.958290 -0.005786 0.256773
v 0.961517 -0.006681 0.257637
v 0.964743 -0.005786 0.258502
v 0.967105 -0.003340 0.259135
v 0.993543 0.000000 0.130802
v 0.992655 0.003340 0.130686
v 0.990231 0.005786 0.130366
v 0.986919 0.006681 0.129930
v 0.983607 0.005786 0.129494
v 0.981183 0.003340 0.129175
v 0.980296 0.000000 0.129058
v 0.981183 -0.003340 0.129175
v 0.983607 -0.005786 0.129494
v 0.986919 -0.006681 0.129930
v 0.990231 -0.005786 0.130366
v 0.992655 -0.003340 0.130686
vn 0.9640 0.2583 -0.0632
vn 0.7064 0.7063 -0.0463
vn 0.2588 0.9658 -0.0170
vn -0.2588 0.9658 0.0170
vn -0.7064 0.7063 0.0463
vn -0.9640 0.2583 0.0632
vn -0.9640 -0.2583 0.0632
vn -0.7064 -0.7063 0.0463
vn -0.2588 -0.9658 0.0170
vn 0.2588 -0.9658 -0.0170
vn 0.7064 -0.7063 -0.0463
vn 0.9640 -0.2583 -0.0632
vn 0.9475 0.2583 -0.1885
vn 0.6943 0.7063 -0.1381
vn 0.2543 0.9658 -0.0506
vn -0.2544 0.9658 0.0506
vn -0.6943 0.7063 0.1381
vn -0.9475 0.2583 0.1885
vn -0.9475 -0.2583 0.1885
vn -0.6943 -0.7063 0.1381
vn -0.2544 -0.9658 0.0506
vn 0.2544 -0.9658 -0.0506
vn 0.6943 -0.7063 -0.1381
vn 0.9475 -0.2583 -0.1885
vn 0.9148 0.2583 -0.3105
vn 0.6703 0.7063 -0.2275
vn 0.2456 0.9658 -0.0834
vn -0.2456 0.9658 0.0834
vn -0.6703 0.7063 0.2275
vn -0.9148 0.2583 0.3105
vn -0.9148 -0.2583 0.3105
vn -0.6703 -0.7063 0.2275
vn -0.2456 -0.9658 0.0834
vn 0.2456 -0.9658 -0.0834
vn 0.6703 -0.7063 -0.2275
vn 0.9148 -0.2583 -0.3105
vn 0.8664 0.2583 -0.4273
vn 0.6349 0.7063 -0.3131
vn 0.2326 0.9658 -0.1147
vn -0.2326 0.9658 0.1147
vn -0.6349 0.7063 0.3131
vn -0.8664 0.2583 0.4273
vn -0.8664 -0.2583 0.4273
vn -0.6349 -0.7063 0.3131
vn -0.2326 -0.9658 0.1147
vn 0.2326 -0.9658 -0.1147
vn 0.6349 -0.7063 -0.3131
vn 0.8664 -0.2583 -0.4273
vn 0.8032 0.2583 -0.5367
vn 0.5886 0.7063 -0.3933
vn 0.2156 0.9658 -0.1441
vn -0.2156 0.9658 0.1441
vn -0.5886 0.7063 0.3933
vn -0.8033 0.2583 0.5367
vn -0.8033 -0.2583 0.5367
vn -0.5886 -0.7063 0.3933
vn -0.2156 -0.9658 0.1441
vn 0.2156 -0.9658 -0.1441
vn 0.5886 -0.7063 -0.3933
vn 0.8033 -0.2583 -0.5367
vn 0.7263 0.2583 -0.6370
vn 0.5322 0.7063 -0.4667
vn 0.1950 0.9658 -0.1710
vn -0.1950 0.9658 0.1710
vn -0.5322 0.7063 0.4667
vn -0.7263 0.2583 0.6370
vn -0.7263 -0.2583 0.6370
vn -0.5322 -0.7063 0.4667
vn -0.1950 -0.9658 0.1710
vn 0.1950 -0.9658 -0.1710
vn 0.5322 -0.7063 -0.4667
vn 0.7263 -0.2583 -0.6370
vn 0.6370 0.2583 -0.7263
vn 0.4667 0.7063 -0.5322
vn 0.1710 0.9658 -0.1950
vn -0.1710 0.9658 0.1950
vn -0.4667 0.7064 0.5322
vn -0.6370 0.2583 0.7263
vn -0.6370 -0.2583 0.7263
vn -0.4667 -0.7064 0.5322
vn -0.1710 -0.9658 0.1950
vn 0.1710 -0.9658 -0.1950
vn 0.4667 -0.7063 -0.5322
vn 0.6370 -0.2583 -0.7263
vn 0.5367 0.2583 -0.8033
vn 0.3933 0.7063 -0.5886
vn 0.1441 0.9658 -0.2156
vn -0.1441 0.9658 0.2156
vn -0.3933 0.7063 0.5886
vn -0.5367 0.2584 0.8032
vn -0.5367 -0.2583 0.8032
vn -0.3933 -0.7064 0.5886
vn -0.1441 -0.9658 0.2156
vn 0.1441 -0.9658 -0.2156
vn 0.3933 -0.7064 -0.5886
vn 0.5367 -0.2583 -0.8032
vn 0.4273 0.2583 -0.8664
vn 0.3131 0.7064 -0.6349
vn 0.1147 0.9658 -0.2326
vn -0.1147 0.9658 0.2326
vn -0.3131 0.7063 0.6349
vn -0.4273 0.2583 0.8664
vn -0.4273 -0.2583 0.8664
vn -0.3131 -0.7064 0.6349
vn -0.1147 -0.9658 0.2326
vn 0.1147 -0.9658 -0.2326
vn 0.3131 -0.7064 -0.6348
vn 0.4273 -0.2583 -0.8664
vn 0.3105 0.2583 -0.9148
vn 0.2275 0.7063 -0.6703
vn 0.0834 0.9658 -0.2456
vn -0.0834 0.9658 0.2456
vn -0.2275 0.7063 0.6703
vn -0.3105 0.2583 0.9148
vn -0.3105 -0.2583 0.9148
vn -0.2275 -0.7064 0.6703
vn -0.0834 -0.9658 0.2456
vn 0.0834 -0.9658 -0.2456
vn 0.2275 -0.7063 -0.6703
vn 0.3105 -0.2583 -0.9148
vn 0.1885 0.2584 -0.9475
vn 0.1381 0.7063 -0.6943
vn 0.0506 0.9658 -0.2544
vn -0.0506 0.9658 0.2544
vn -0.1381 0.7063 0.6943
vn -0.1885 0.2584 0.9475
vn -0.1885 -0.2584 0.9475
vn -0.1381 -0.7063 0.6943
vn -0.0506 -0.9658 0.2543
vn 0.0506 -0.9658 -0.2544
vn 0.1381 -0.7063 -0.6943
vn 0.1885 -0.2583 -0.9475
vn 0.0632 0.2583 -0.9640
vn 0.0463 0.7063 -0.7064
vn 0.0170 0.9658 -0.2588
vn -0.0170 0.9658 0.2588
vn -0.0463 0.7063 0.7064
vn -0.0632 0.2583 0.9640
vn -0.0632 -0.2583 0.9640
vn -0.0463 -0.7064 0.7063
vn -0.0170 -0.9658 0.2588
vn 0.0170 -0.9658 -0.2588
vn 0.0463 -0.7064 -0.7063
vn 0.0632 -0.2583 -0.9640
vn -0.0632 0.2584 -0.9640
vn -0.0463 0.7063 -0.7064
vn -0.0170 0.9658 -0.2588
vn 0.0170 0.9658 0.2588
vn 0.0463 0.7064 0.7063
vn 0.0632 0.2584 0.9640
vn 0.0632 -0.2584 0.9640
vn 0.0463 -0.7064 0.7063
vn 0.0170 -0.9658 0.2588
vn -0.0170 -0.9658 -0.2588
vn -0.0463 -0.7063 -0.7064
vn -0.0632 -0.2583 -0.9640
vn -0.1885 0.2584 -0.9475
vn -0.1381 0.7063 -0.6943
vn -0.0506 0.9658 -0.2543
vn 0.0506 0.9658 0.2544
vn 0.1381 0.7064 0.6943
vn 0.1885 0.2583 0.9475
vn 0.1885 -0.2583 0.9475
vn 0.1381 -0.7063 0.6943
vn 0.0506 -0.9658 0.2543
vn -0.0506 -0.9658 -0.2544
vn -0.1381 -0.7064 -0.6942
vn -0.1885 -0.2584 -0.9475
vn -0.3105 0.2583 -0.9148
vn -0.2275 0.7063 -0.6703
vn -0.0834 0.9658 -0.2456
vn 0.0834 0.9658 0.2456
vn 0.2275 0.7064 0.6703
vn 0.3105 0.2583 0.9148
vn 0.3105 -0.2584 0.9148
vn 0.2275 -0.7063 0.6703
vn 0.0834 -0.9658 0.2456
vn -0.0834 -0.9658 -0.2456
vn -0.2275 -0.7063 -0.6703
vn -0.3105 -0.2583 -0.9148
vn -0.4273 0.2583 -0.8664
vn -0.3131 0.7064 -0.6349
vn -0.1147 0.9658 -0.2326
vn 0.1147 0.9658 0.2326
vn 0.3131 0.7064 0.6349
vn 0.4273 0.2583 0.8664
vn 0.4273 -0.2583 0.8664
vn 0.3131 -0.7064 0.6349
vn 0.1147 -0.9658 0.2326
vn -0.1147 -0.9658 -0.2326
vn -0.3131 -0.7063 -0.6349
vn -0.4273 -0.2583 -0.8664
vn -0.5367 0.2583 -0.8032
vn -0.3933 0.7063 -0.5886
vn -0.1441 0.9658 -0.2156
vn 0.1441 0.9658 0.2156
vn 0.3933 0.7064 0.5886
vn 0.5367 0.2583 0.8032
vn 0.5367 -0.2583 0.8032
vn 0.3933 -0.7064 0.5886
vn 0.1441 -0.9658 0.2156
vn -0.1441 -0.9658 -0.2156
vn -0.3933 -0.7063 -0.5886
vn -0.5367 -0.2583 -0.8032
vn -0.6370 0.2583 -0.7263
vn -0.4667 0.7064 -0.5322
vn -0.1710 0.9658 -0.1950
vn 0.1710 0.9658 0.1950
vn 0.4667 0.7063 0.5322
vn 0.6370 0.2583 0.7263
vn 0.6370 -0.2583 0.7263
vn 0.4667 -0.7063 0.5322
vn 0.1710 -0.9658 0.1950
vn -0.1710 -0.9658 -0.1950
vn -0.4667 -0.7064 -0.5322
vn -0.6370 -0.2583 -0.7263
vn -0.7263 0.2583 -0.6370
vn -0.5322 0.7063 -0.4667
vn -0.1950 0.9658 -0.1710
vn 0.1950 0.9658 0.1710
vn 0.5322 0.7063 0.4667
vn 0.7263 0.2583 0.6370
vn 0.7263 -0.2583 0.6370
vn 0.5322 -0.7063 0.4667
vn 0.1950 -0.9658 0.1710
vn -0.1950 -0.9658 -0.1710
vn -0.5322 -0.7063 -0.4667
vn -0.7263 -0.2583 -0.6370
vn -0.8033 0.2583 -0.5367
vn -0.5886 0.7063 -0.3933
vn -0.2156 0.9658 -0.1441
vn 0.2156 0.9658 0.1441
vn 0.5886 0.7064 0.3933
vn 0.8033 0.2583 0.5367
vn 0.8033 -0.2583 0.5367
vn 0.5886 -0.7063 0.3933
vn 0.2156 -0.9658 0.1441
vn -0.2156 -0.9658 -0.1441
vn -0.5886 -0.7063 -0.3933
vn -0.8033 -0.2583 -0.5367
vn -0.8664 0.2583 -0.4273
vn -0.6349 0.7063 -0.3131
vn -0.2326 0.9658 -0.1147
vn 0.2326 0.9658 0.1147
vn 0.6349 0.7064 0.3131
vn 0.8664 0.2583 0.4273
vn 0.8664 -0.2583 0.4273
vn 0.6349 -0.7064 0.3131
vn 0.2326 -0.9658 0.1147
vn -0.2326 -0.9658 -0.1147
vn -0.6349 -0.7063 -0.3131
vn -0.8664 -0.2583 -0.4273
vn -0.9148 0.2583 -0.3105
vn -0.6703 0.7063 -0.2275
vn -0.2456 0.9658 -0.0834
vn 0.2456 0.9658 0.0834
vn 0.6703 0.7063 0.2275
vn 0.9148 0.2583 0.3105
vn 0.9148 -0.2583 0.3105
vn 0.6703 -0.7063 0.2275
vn 0.2456 -0.9658 0.0834
vn -0.2456 -0.9658 -0.0834
vn -0.6703 -0.7063 -0.2275
vn -0.9148 -0.2583 -0.3105
vn -0.9475 0.2583 -0.1885
vn -0.6943 0.7063 -0.1381
vn -0.2544 0.9658 -0.0506
vn 0.2544 0.9658 0.0506
vn 0.6943 0.7063 0.1381
vn 0.9475 0.2583 0.1885
vn 0.9475 -0.2583 0.1885
vn 0.6943 -0.7063 0.1381
vn 0.2544 -0.9658 0.0506
vn -0.2544 -0.9658 -0.0506
vn -0.6943 -0.7063 -0.1381
vn -0.9475 -0.2583 -0.1885
vn -0.9640 0.2583 -0.0632
vn -0.7064 0.7063 -0.0463
vn -0.2588 0.9658 -0.0170
vn 0.2588 0.9658 0.0170
vn 0.7064 0.7063 0.0463
vn 0.9640 0.2583 0.0632
vn 0.9640 -0.2583 0.0632
vn 0.7064 -0.7063 0.0463
vn 0.2588 -0.9658 0.0170
vn -0.2588 -0.9658 -0.0170
vn -0.7064 -0.7063 -0.0463
vn -0.9640 -0.2583 -0.0632
vn 0.2543 -0.9658 -0.0506
vn -0.8032 0.2583 0.5367
vn 0.5886 0.7064 -0.3933
vn 0.8033 0.2583 -0.5367
vn -0.8032 -0.2583 0.5367
vn -0.5322 -0.7064 0.4667
vn -0.4667 -0.7063 0.5322
vn -0.5367 0.2583 0.8033
vn -0.3933 0.7064 0.5886
vn 0.5367 -0.2583 -0.8033
vn 0.3933 -0.7063 -0.5886
vn -0.5367 -0.2583 0.8033
vn 0.3131 0.7063 -0.6349
vn 0.3131 -0.7063 -0.6349
vn -0.3131 -0.7063 0.6349
vn 0.2275 0.7064 -0.6703
vn 0.2275 -0.7064 -0.6703
vn -0.2275 -0.7063 0.6703
vn -0.1885 0.2583 0.9475
vn -0.1381 0.7064 0.6943
vn -0.0506 0.9658 0.2543
vn 0.1381 0.7064 -0.6942
vn 0.1885 0.2583 -0.9475
vn -0.0506 -0.9658 0.2544
vn -0.1381 -0.7064 0.6942
vn -0.1885 -0.2583 0.9475
vn 0.0632 0.2582 -0.9640
vn 0.0463 -0.7063 -0.7064
vn -0.0463 -0.7063 0.7064
vn 0.0632 0.2583 0.9640
vn 0.0463 0.7063 0.7064
vn -0.0632 0.2582 -0.9640
vn -0.0632 -0.2582 -0.9640
vn -0.0463 -0.7064 -0.7063
vn 0.0463 -0.7063 0.7064
vn 0.0632 -0.2583 0.9640
vn 0.1381 0.7063 0.6943
vn 0.0506 0.9658 0.2543
vn -0.0506 0.9658 -0.2544
vn -0.1885 -0.2583 -0.9475
vn -0.1381 -0.7063 -0.6943
vn -0.2275 0.7064 -0.6703
vn 0.3105 -0.2583 0.9148
vn -0.3131 0.7063 -0.6349
vn 0.3933 0.7063 0.5886
vn 0.5886 0.7063 0.3933
vn -0.8032 -0.2583 -0.5367
vn 0.6349 0.7063 0.3131
vn 0.6349 -0.7063 0.3131
vn 0.2544 0.9658 -0.0506
vn -0.3933 0.7064 0.5885
vn -0.3933 -0.7063 0.5886
vn 0.3131 -0.7064 -0.6349
vn -0.2275 0.7064 0.6703
vn 0.0506 0.9658 -0.2543
vn -0.1885 0.2582 0.9475
vn 0.0506 -0.9658 -0.2543
vn -0.0463 0.7064 0.7063
vn -0.0632 0.2582 0.9640
vn -0.0632 -0.2582 0.9640
vn -0.0632 0.2583 -0.9640
vn -0.0632 -0.2584 -0.9640
vn -0.1885 0.2583 -0.9475
vn -0.1381 0.7064 -0.6942
vn 0.1885 0.2582 0.9475
vn 0.1381 -0.7064 0.6943
vn 0.2275 0.7063 0.6703
vn 0.3105 0.2584 0.9148
vn -0.2275 -0.7064 -0.6703
vn 0.3131 0.7063 0.6349
vn 0.3131 -0.7063 0.6349
vn -0.5367 0.2583 -0.8033
vn 0.3933 -0.7063 0.5886
vn -0.3933 -0.7064 -0.5886
vn -0.5367 -0.2583 -0.8033
vn -0.4667 0.7063 -0.5322
vn -0.5322 -0.7064 -0.4667
vn 0.5886 -0.7064 0.3933
vn 0.2543 0.9658 0.0506
vn 0.2543 -0.9658 0.0506
vn -0.5886 0.7064 0.3933
vn -0.5886 -0.7064 0.3933
vn -0.4667 0.7063 0.5322
vn -0.5367 0.2583 0.8032
vn 0.3933 0.7064 -0.5886
vn 0.5367 0.2583 -0.8032
vn 0.3105 0.2584 -0.9148
vn 0.1885 -0.2584 -0.9475
vn 0.1381 -0.7064 -0.6943
vn 0.0632 0.2584 -0.9640
vn 0.0632 -0.2584 -0.9640
vn 0.0463 -0.7063 -0.7063
vn -0.0463 0.7064 -0.7063
vn 0.0506 -0.9658 0.2544
vn 0.2275 -0.7064 0.6703
vn -0.3131 -0.7064 -0.6349
vn 0.5367 0.2583 0.8033
vn 0.5367 -0.2583 0.8033
vn -0.4667 -0.7063 -0.5322
vt 0.520833 0.500000
vt 0.500000 0.583333
vt 0.500000 0.500000
vt 0.520833 0.583333
vt 0.500000 0.666667
vt 0.520833 0.666667
vt 0.500000 0.750000
vt 0.520833 0.750000
vt 0.500000 0.833333
vt 0.520833 0.833333
vt 0.500000 0.916667
vt 0.520833 0.916667
vt 0.500000 1.000000
vt 0.520833 0.000000
vt 0.500000 0.083333
vt 0.500000 0.000000
vt 0.520833 0.083333
vt 0.500000 0.166667
vt 0.520833 0.166667
vt 0.500000 0.250000
vt 0.520833 0.333333
vt 0.500000 0.333333
vt 0.500000 0.416667
vt 0.520833 0.416667
vt 0.541667 0.500000
vt 0.541667 0.666667
vt 0.541667 0.750000
vt 0.541667 0.833333
vt 0.541667 0.916667
vt 0.520833 1.000000
vt 0.541667 0.083333
vt 0.541667 0.250000
vt 0.520833 0.250000
vt 0.541667 0.333333
vt 0.562500 0.500000
vt 0.541667 0.583333
vt 0.562500 0.666667
vt 0.562500 0.750000
vt 0.562500 0.916667
vt 0.562500 1.000000
vt 0.541667 1.000000
vt 0.562500 0.000000
vt 0.541667 0.000000
vt 0.562500 0.083333
vt 0.541667 0.166667
vt 0.562500 0.250000
vt 0.562500 0.333333
vt 0.541667 0.416667
vt 0.583333 0.583333
vt 0.562500 0.583333
vt 0.583333 0.666667
vt 0.583333 0.750000
vt 0.562500 0.833333
vt 0.583333 0.916667
vt 0.583333 1.000000
vt 0.583333 0.000000
vt 0.583333 0.083333
vt 0.562500 0.166667
vt 0.583333 0.250000
vt 0.583333 0.333333
vt 0.562500 0.416667
vt 0.583333 0.416667
vt 0.604167 0.500000
vt 0.583333 0.500000
vt 0.604167 0.666667
vt 0.604167 0.750000
vt 0.583333 0.833333
vt 0.604167 0.833333
vt 0.604167 1.000000
vt 0.604167 0.000000
vt 0.604167 0.083333
vt 0.583333 0.166667
vt 0.604167 0.166667
vt 0.604167 0.333333
vt 0.604167 0.416667
vt 0.625000 0.500000
vt 0.604167 0.583333
vt 0.625000 0.666667
vt 0.625000 0.833333
vt 0.625000 0.916667
vt 0.604167 0.916667
vt 0.625000 0.083333
vt 0.625000 0.166667
vt 0.604167 0.250000
vt 0.625000 0.250000
vt 0.625000 0.333333
vt 0.625000 0.416667
vt 0.645833 0.500000
vt 0.625000 0.583333
vt 0.645833 0.583333
vt 0.645833 0.750000
vt 0.625000 0.750000
vt 0.645833 0.833333
vt 0.645833 0.916667
vt 0.625000 1.000000
vt 0.645833 0.000000
vt 0.625000 0.000000
vt 0.645833 0.083333
vt 0.645833 0.166667
vt 0.645833 0.250000
vt 0.645833 0.333333
vt 0.645833 0.416667
vt 0.666667 0.500000
vt 0.666667 0.666667
vt 0.645833 0.666667
vt 0.666667 0.750000
vt 0.666667 0.833333
vt 0.666667 1.000000
vt 0.645833 1.000000
vt 0.666667 0.000000
vt 0.666667 0.083333
vt 0.666667 0.250000
vt 0.666667 0.333333
vt 0.666667 0.416667
vt 0.687500 0.500000
vt 0.666667 0.583333
vt 0.687500 0.583333
vt 0.687500 0.750000
vt 0.687500 0.916667
vt 0.666667 0.916667
vt 0.687500 0.000000
vt 0.687500 0.083333
vt 0.666667 0.166667
vt 0.687500 0.250000
vt 0.687500 0.333333
vt 0.708333 0.583333
vt 0.687500 0.666667
vt 0.708333 0.666667
vt 0.708333 0.750000
vt 0.687500 0.833333
vt 0.708333 0.833333
vt 0.708333 0.916667
vt 0.687500 1.000000
vt 0.708333 0.000000
vt 0.708333 0.083333
vt 0.687500 0.166667
vt 0.708333 0.250000
vt 0.708333 0.333333
vt 0.708333 0.416667
vt 0.687500 0.416667
vt 0.708333 0.500000
vt 0.729167 0.583333
vt 0.729167 0.666667
vt 0.729167 0.750000
vt 0.729167 0.833333
vt 0.729167 0.916667
vt 0.708333 1.000000
vt 0.729167 0.083333
vt 0.729167 0.166667
vt 0.708333 0.166667
vt 0.729167 0.333333
vt 0.729167 0.416667
vt 0.750000 0.500000
vt 0.729167 0.500000
vt 0.750000 0.583333
vt 0.750000 0.750000
vt 0.750000 0.833333
vt 0.750000 0.916667
vt 0.729167 1.000000
vt 0.729167 0.000000
vt 0.750000 0.083333
vt 0.750000 0.166667
vt 0.729167 0.250000
vt 0.750000 0.250000
vt 0.750000 0.333333
vt 0.770833 0.500000
vt 0.770833 0.583333
vt 0.750000 0.666667
vt 0.770833 0.666667
vt 0.770833 0.750000
vt 0.770833 0.916667
vt 0.750000 1.000000
vt 0.770833 0.000000
vt 0.750000 0.000000
vt 0.770833 0.083333
vt 0.770833 0.250000
vt 0.770833 0.333333
vt 0.750000 0.416667
vt 0.770833 0.416667
vt 0.791667 0.500000
vt 0.791667 0.583333
vt 0.791667 0.750000
vt 0.770833 0.833333
vt 0.791667 0.916667
vt 0.770833 1.000000
vt 0.791667 0.083333
vt 0.791667 0.166667
vt 0.770833 0.166667
vt 0.791667 0.333333
vt 0.812500 0.583333
vt 0.812500 0.666667
vt 0.791667 0.666667
vt 0.812500 0.750000
vt 0.791667 0.833333
vt 0.812500 0.833333
vt 0.812500 0.916667
vt 0.791667 1.000000
vt 0.791667 0.000000
vt 0.812500 0.083333
vt 0.812500 0.166667
vt 0.791667 0.250000
vt 0.812500 0.250000
vt 0.812500 0.333333
vt 0.791667 0.416667
vt 0.812500 0.416667
vt 0.833333 0.500000
vt 0.812500 0.500000
vt 0.833333 0.583333
vt 0.833333 0.750000
vt 0.833333 0.833333
vt 0.833333 1.000000
vt 0.812500 1.000000
vt 0.833333 0.000000
vt 0.812500 0.000000
vt 0.833333 0.166667
vt 0.833333 0.250000
vt 0.833333 0.333333
vt 0.833333 0.416667
vt 0.854167 0.500000
vt 0.854167 0.583333
vt 0.833333 0.666667
vt 0.854167 0.666667
vt 0.854167 0.833333
vt 0.833333 0.916667
vt 0.854167 0.916667
vt 0.854167 0.000000
vt 0.833333 0.083333
vt 0.854167 0.166667
vt 0.854167 0.333333
vt 0.854167 0.416667
vt 0.875000 0.583333
vt 0.875000 0.666667
vt 0.854167 0.750000
vt 0.875000 0.750000
vt 0.875000 0.916667
vt 0.854167 1.000000
vt 0.875000 0.000000
vt 0.854167 0.083333
vt 0.875000 0.083333
vt 0.875000 0.250000
vt 0.854167 0.250000
vt 0.875000 0.333333
vt 0.875000 0.416667
vt 0.895833 0.500000
vt 0.875000 0.500000
vt 0.895833 0.666667
vt 0.895833 0.750000
vt 0.875000 0.833333
vt 0.895833 0.833333
vt 0.895833 0.916667
vt 0.875000 1.000000
vt 0.895833 0.000000
vt 0.895833 0.166667
vt 0.875000 0.166667
vt 0.895833 0.250000
vt 0.895833 0.333333
vt 0.895833 0.416667
vt 0.916667 0.500000
vt 0.895833 0.583333
vt 0.916667 0.666667
vt 0.916667 0.750000
vt 0.916667 0.916667
vt 0.895833 1.000000
vt 0.916667 0.083333
vt 0.895833 0.083333
vt 0.916667 0.250000
vt 0.916667 0.333333
vt 0.916667 0.416667
vt 0.937500 0.500000
vt 0.916667 0.583333
vt 0.937500 0.583333
vt 0.937500 0.750000
vt 0.916667 0.833333
vt 0.937500 0.833333
vt 0.937500 1.000000
vt 0.916667 1.000000
vt 0.937500 0.000000
vt 0.916667 0.000000
vt 0.937500 0.083333
vt 0.916667 0.166667
vt 0.937500 0.250000
vt 0.937500 0.416667
vt 0.958333 0.500000
vt 0.958333 0.583333
vt 0.937500 0.666667
vt 0.958333 0.750000
vt 0.958333 0.833333
vt 0.937500 0.916667
vt 0.958333 0.916667
vt 0.958333 0.000000
vt 0.958333 0.083333
vt 0.937500 0.166667
vt 0.958333 0.250000
vt 0.937500 0.333333
vt 0.958333 0.333333
vt 0.958333 0.416667
vt 0.979167 0.500000
vt 0.979167 0.583333
vt 0.958333 0.666667
vt 0.979167 0.666667
vt 0.979167 0.750000
vt 0.979167 0.833333
vt 0.979167 1.000000
vt 0.958333 1.000000
vt 0.979167 0.000000
vt 0.979167 0.083333
vt 0.958333 0.166667
vt 0.979167 0.250000
vt 0.979167 0.333333
vt 0.979167 0.416667
vt 1.000000 0.583333
vt 1.000000 0.666667
vt 1.000000 0.750000
vt 1.000000 0.833333
vt 0.979167 0.916667
vt 1.000000 1.000000
vt 1.000000 0.000000
vt 1.000000 0.166667
vt 0.979167 0.166667
vt 1.000000 0.333333
vt 1.000000 0.416667
vt 0.000000 0.500000
vt 0.020833 0.583333
vt 0.000000 0.583333
vt 0.000000 0.666667
vt 0.020833 0.666667
vt 0.000000 0.750000
vt 0.020833 0.750000
vt 0.000000 0.833333
vt 0.020833 0.916667
vt 0.000000 0.916667
vt 0.000000 1.000000
vt 0.000000 0.000000
vt 0.020833 0.083333
vt 0.000000 0.083333
vt 0.000000 0.166667
vt 0.020833 0.250000
vt 0.000000 0.250000
vt 0.020833 0.333333
vt 0.000000 0.333333
vt 0.000000 0.416667
vt 0.020833 0.416667
vt 0.041667 0.500000
vt 0.020833 0.500000
vt 0.041667 0.666667
vt 0.041667 0.833333
vt 0.020833 0.833333
vt 0.041667 0.916667
vt 0.020833 1.000000
vt 0.020833 0.000000
vt 0.041667 0.083333
vt 0.020833 0.166667
vt 0.041667 0.166667
vt 0.041667 0.250000
vt 0.041667 0.333333
vt 0.041667 0.416667
vt 0.062500 0.500000
vt 0.041667 0.583333
vt 0.062500 0.583333
vt 0.062500 0.666667
vt 0.041667 0.750000
vt 0.062500 0.750000
vt 0.062500 0.833333
vt 0.062500 1.000000
vt 0.041667 1.000000
vt 0.062500 0.000000
vt 0.041667 0.000000
vt 0.062500 0.166667
vt 0.062500 0.250000
vt 0.062500 0.333333
vt 0.083333 0.500000
vt 0.083333 0.583333
vt 0.083333 0.666667
vt 0.083333 0.833333
vt 0.062500 0.916667
vt 0.083333 1.000000
vt 0.083333 0.000000
vt 0.062500 0.083333
vt 0.083333 0.166667
vt 0.083333 0.333333
vt 0.062500 0.416667
vt 0.083333 0.416667
vt 0.104167 0.500000
vt 0.104167 0.583333
vt 0.104167 0.666667
vt 0.083333 0.750000
vt 0.104167 0.833333
vt 0.083333 0.916667
vt 0.104167 0.916667
vt 0.104167 0.000000
vt 0.083333 0.083333
vt 0.104167 0.166667
vt 0.083333 0.250000
vt 0.104167 0.333333
vt 0.104167 0.416667
vt 0.125000 0.500000
vt 0.125000 0.583333
vt 0.125000 0.750000
vt 0.104167 0.750000
vt 0.125000 0.833333
vt 0.125000 1.000000
vt 0.104167 1.000000
vt 0.125000 0.000000
vt 0.104167 0.083333
vt 0.125000 0.083333
vt 0.125000 0.166667
vt 0.104167 0.250000
vt 0.125000 0.250000
vt 0.125000 0.416667
vt 0.145833 0.500000
vt 0.145833 0.583333
vt 0.125000 0.666667
vt 0.145833 0.666667
vt 0.145833 0.833333
vt 0.125000 0.916667
vt 0.145833 0.916667
vt 0.145833 0.083333
vt 0.145833 0.166667
vt 0.145833 0.250000
vt 0.125000 0.333333
vt 0.145833 0.333333
vt 0.166667 0.583333
vt 0.166667 0.666667
vt 0.145833 0.750000
vt 0.166667 0.750000
vt 0.166667 0.916667
vt 0.145833 1.000000
vt 0.145833 0.000000
vt 0.166667 0.083333
vt 0.166667 0.250000
vt 0.166667 0.416667
vt 0.145833 0.416667
vt 0.187500 0.500000
vt 0.166667 0.500000
vt 0.187500 0.583333
vt 0.187500 0.666667
vt 0.187500 0.833333
vt 0.166667 0.833333
vt 0.187500 0.916667
vt 0.166667 1.000000
vt 0.187500 0.000000
vt 0.166667 0.000000
vt 0.187500 0.083333
vt 0.166667 0.166667
vt 0.187500 0.166667
vt 0.187500 0.250000
vt 0.166667 0.333333
vt 0.187500 0.416667
vt 0.208333 0.500000
vt 0.208333 0.583333
vt 0.208333 0.666667
vt 0.187500 0.750000
vt 0.208333 0.750000
vt 0.208333 0.916667
vt 0.187500 1.000000
vt 0.208333 0.083333
vt 0.208333 0.166667
vt 0.208333 0.250000
vt 0.187500 0.333333
vt 0.208333 0.416667
vt 0.229167 0.500000
vt 0.229167 0.583333
vt 0.229167 0.666667
vt 0.229167 0.750000
vt 0.208333 0.833333
vt 0.229167 0.833333
vt 0.229167 0.916667
vt 0.208333 1.000000
vt 0.229167 0.000000
vt 0.208333 0.000000
vt 0.229167 0.083333
vt 0.229167 0.166667
vt 0.229167 0.333333
vt 0.208333 0.333333
vt 0.229167 0.416667
vt 0.250000 0.500000
vt 0.250000 0.583333
vt 0.250000 0.666667
vt 0.250000 0.750000
vt 0.250000 0.833333
vt 0.250000 1.000000
vt 0.229167 1.000000
vt 0.250000 0.000000
vt 0.250000 0.083333
vt 0.250000 0.166667
vt 0.229167 0.250000
vt 0.250000 0.250000
vt 0.250000 0.333333
vt 0.270833 0.500000
vt 0.270833 0.583333
vt 0.270833 0.666667
vt 0.270833 0.750000
vt 0.270833 0.833333
vt 0.250000 0.916667
vt 0.270833 0.916667
vt 0.270833 0.000000
vt 0.270833 0.083333
vt 0.270833 0.166667
vt 0.270833 0.333333
vt 0.250000 0.416667
vt 0.270833 0.416667
vt 0.291667 0.500000
vt 0.291667 0.666667
vt 0.291667 0.833333
vt 0.291667 0.916667
vt 0.270833 1.000000
vt 0.291667 0.000000
vt 0.291667 0.083333
vt 0.291667 0.166667
vt 0.270833 0.250000
vt 0.291667 0.333333
vt 0.312500 0.500000
vt 0.291667 0.583333
vt 0.312500 0.583333
vt 0.312500 0.666667
vt 0.291667 0.750000
vt 0.312500 0.833333
vt 0.312500 1.000000
vt 0.291667 1.000000
vt 0.312500 0.000000
vt 0.312500 0.166667
vt 0.291667 0.250000
vt 0.312500 0.250000
vt 0.312500 0.333333
vt 0.291667 0.416667
vt 0.312500 0.416667
vt 0.333333 0.583333
vt 0.333333 0.666667
vt 0.312500 0.750000
vt 0.333333 0.833333
vt 0.312500 0.916667
vt 0.333333 1.000000
vt 0.333333 0.000000
vt 0.312500 0.083333
vt 0.333333 0.166667
vt 0.333333 0.250000
vt 0.333333 0.333333
vt 0.333333 0.416667
vt 0.354167 0.500000
vt 0.333333 0.500000
vt 0.354167 0.583333
vt 0.354167 0.666667
vt 0.333333 0.750000
vt 0.354167 0.750000
vt 0.354167 0.916667
vt 0.333333 0.916667
vt 0.354167 1.000000
vt 0.354167 0.000000
vt 0.333333 0.083333
vt 0.354167 0.166667
vt 0.354167 0.333333
vt 0.354167 0.416667
vt 0.375000 0.500000
vt 0.375000 0.583333
vt 0.375000 0.750000
vt 0.354167 0.833333
vt 0.375000 0.833333
vt 0.375000 1.000000
vt 0.375000 0.000000
vt 0.354167 0.083333
vt 0.375000 0.083333
vt 0.375000 0.250000
vt 0.354167 0.250000
vt 0.375000 0.416667
vt 0.395833 0.500000
vt 0.395833 0.666667
vt 0.375000 0.666667
vt 0.395833 0.750000
vt 0.395833 0.916667
vt 0.375000 0.916667
vt 0.395833 0.000000
vt 0.395833 0.083333
vt 0.375000 0.166667
vt 0.395833 0.250000
vt 0.375000 0.333333
vt 0.395833 0.333333
vt 0.416667 0.500000
vt 0.395833 0.583333
vt 0.416667 0.583333
vt 0.416667 0.750000
vt 0.395833 0.833333
vt 0.416667 0.833333
vt 0.416667 0.916667
vt 0.395833 1.000000
vt 0.416667 0.000000
vt 0.416667 0.083333
vt 0.395833 0.166667
vt 0.416667 0.166667
vt 0.416667 0.250000
vt 0.416667 0.333333
vt 0.395833 0.416667
vt 0.416667 0.416667
vt 0.437500 0.500000
vt 0.437500 0.583333
vt 0.416667 0.666667
vt 0.437500 0.666667
vt 0.437500 0.750000
vt 0.437500 0.833333
vt 0.437500 0.916667
vt 0.416667 1.000000
vt 0.437500 0.083333
vt 0.437500 0.250000
vt 0.437500 0.333333
vt 0.458333 0.500000
vt 0.458333 0.666667
vt 0.458333 0.750000
vt 0.458333 0.833333
vt 0.458333 0.916667
vt 0.437500 1.000000
vt 0.437500 0.000000
vt 0.458333 0.083333
vt 0.437500 0.166667
vt 0.458333 0.166667
vt 0.458333 0.333333
vt 0.437500 0.416667
vt 0.479167 0.500000
vt 0.458333 0.583333
vt 0.479167 0.583333
vt 0.479167 0.666667
vt 0.479167 0.833333
vt 0.479167 0.916667
vt 0.458333 1.000000
vt 0.479167 0.000000
vt 0.458333 0.000000
vt 0.479167 0.083333
vt 0.479167 0.166667
vt 0.458333 0.250000
vt 0.479167 0.250000
vt 0.479167 0.333333
vt 0.458333 0.416667
vt 0.479167 0.750000
vt 0.479167 1.000000
vt 0.479167 0.416667
vt 1.000000 0.500000
vt 1.000000 0.916667
vt 1.000000 0.083333
vt 1.000000 0.250000
s 0
f 13/1/1 2/2/1 1/3/1
f 14/4/2 3/5/2 2/2/2
f 15/6/3 4/7/3 3/5/3
f 16/8/4 5/9/4 4/7/4
f 17/10/5 6/11/5 5/9/5
f 18/12/6 7/13/6 6/11/6
f 19/14/7 8/15/7 7/16/7
f 20/17/8 9/18/8 8/15/8
f 21/19/9 10/20/9 9/18/9
f 10/20/10 23/21/10 11/22/10
f 23/21/11 12/23/11 11/22/11
f 24/24/12 1/3/12 12/23/12
f 25/25/13 14/4/13 13/1/13
f 14/4/14 27/26/14 15/6/14
f 27/26/15 16/8/15 15/6/15
f 28/27/16 17/10/16 16/8/16
f 29/28/17 18/12/17 17/10/17
f 30/29/18 19/30/18 18/12/18
f 19/14/19 32/31/19 20/17/19
f 32/31/20 21/19/20 20/17/20
f 21/19/21 34/32/21 22/33/21
f 22/33/22 35/34/22 23/21/22
f 35/34/23 24/24/23 23/21/23
f 24/24/24 25/25/24 13/1/24
f 37/35/25 26/36/25 25/25/25
f 26/36/26 39/37/26 27/26/26
f 39/37/27 28/27/27 27/26/27
f 40/38/28 29/28/28 28/27/28
f 29/28/29 42/39/29 30/29/29
f 30/29/30 43/40/30 31/41/30
f 43/42/31 32/31/31 31/43/31
f 44/44/32 33/45/32 32/31/32
f 33/45/33 46/46/33 34/32/33
f 46/46/34 35/34/34 34/32/34
f 47/47/35 36/48/35 35/34/35
f 36/48/36 37/35/36 25/25/36
f 37/35/37 50/49/37 38/50/37
f 38/50/38 51/51/38 39/37/38
f 51/51/39 40/38/39 39/37/39
f 52/52/40 41/53/40 40/38/40
f 41/53/41 54/54/41 42/39/41
f 42/39/42 55/55/42 43/40/42
f 55/56/43 44/44/43 43/42/43
f 56/57/44 45/58/44 44/44/44
f 45/58/45 58/59/45 46/46/45
f 46/46/46 59/60/46 47/47/46
f 59/60/47 48/61/47 47/47/47
f 60/62/48 37/35/48 48/61/48
f 61/63/49 50/49/49 49/64/49
f 50/49/50 63/65/50 51/51/50
f 63/65/51 52/52/51 51/51/51
f 64/66/52 53/67/52 52/52/52
f 65/68/53 54/54/53 53/67/53
f 54/54/54 67/69/54 55/55/54
f 67/70/55 56/57/55 55/56/55
f 68/71/56 57/72/56 56/57/56
f 69/73/57 58/59/57 57/72/57
f 58/59/58 71/74/58 59/60/58
f 71/74/59 60/62/59 59/60/59
f 72/75/60 49/64/60 60/62/60
f 73/76/61 62/77/61 61/63/61
f 62/77/62 75/78/62 63/65/62
f 75/78/63 64/66/63 63/65/63
f 64/66/64 77/79/64 65/68/64
f 65/68/65 78/80/65 66/81/65
f 78/80/66 67/69/66 66/81/66
f 67/70/67 80/82/67 68/71/67
f 80/82/68 69/73/68 68/71/68
f 81/83/69 70/84/69 69/73/69
f 82/85/70 71/74/70 70/84/70
f 83/86/71 72/75/71 71/74/71
f 84/87/72 61/63/72 72/75/72
f 85/88/73 74/89/73 73/76/73
f 86/90/74 75/78/74 74/89/74
f 75/78/75 88/91/75 76/92/75
f 88/91/76 77/79/76 76/92/76
f 89/93/77 78/80/77 77/79/77
f 90/94/78 79/95/78 78/80/78
f 91/96/79 80/82/79 79/97/79
f 92/98/80 81/83/80 80/82/80
f 93/99/81 82/85/81 81/83/81
f 94/100/82 83/86/82 82/85/82
f 95/101/83 84/87/83 83/86/83
f 96/102/84 73/76/84 84/87/84
f 97/103/85 86/90/85 85/88/85
f 86/90/86 99/104/86 87/105/86
f 99/104/87 88/91/87 87/105/87
f 100/106/88 89/93/88 88/91/88
f 101/107/89 90/94/89 89/93/89
f 90/94/90 103/108/90 91/109/90
f 103/110/91 92/98/91 91/96/91
f 104/111/92 93/99/92 92/98/92
f 93/99/93 106/112/93 94/100/93
f 106/112/94 95/101/94 94/100/94
f 107/113/95 96/102/95 95/101/95
f 108/114/96 85/88/96 96/102/96
f 109/115/97 98/116/97 97/103/97
f 110/117/98 99/104/98 98/116/98
f 99/104/99 112/118/99 100/106/99
f 112/118/100 101/107/100 100/106/100
f 101/107/101 114/119/101 102/120/101
f 114/119/102 103/108/102 102/120/102
f 115/121/103 104/111/103 103/110/103
f 116/122/104 105/123/104 104/111/104
f 105/123/105 118/124/105 106/112/105
f 118/124/106 107/113/106 106/112/106
f 119/125/107 108/114/107 107/113/107
f 108/114/108 109/115/108 97/103/108
f 109/115/109 122/126/109 110/117/109
f 122/126/110 111/127/110 110/117/110
f 123/128/111 112/118/111 111/127/111
f 124/129/112 113/130/112 112/118/112
f 125/131/113 114/119/113 113/130/113
f 126/132/114 115/133/114 114/119/114
f 127/134/115 116/122/115 115/121/115
f 128/135/116 117/136/116 116/122/116
f 117/136/117 130/137/117 118/124/117
f 118/124/118 131/138/118 119/125/118
f 119/125/119 132/139/119 120/140/119
f 132/139/120 109/115/120 120/140/120
f 121/141/121 134/142/121 122/126/121
f 134/142/122 123/128/122 122/126/122
f 135/143/123 124/129/123 123/128/123
f 136/144/124 125/131/124 124/129/124
f 137/145/125 126/132/125 125/131/125
f 138/146/126 127/147/126 126/132/126
f 127/134/127 140/148/127 128/135/127
f 128/135/128 141/149/128 129/150/128
f 141/149/129 130/137/129 129/150/129
f 130/137/130 143/151/130 131/138/130
f 131/138/131 144/152/131 132/139/131
f 144/152/132 121/141/132 132/139/132
f 145/153/133 134/142/133 133/154/133
f 146/155/134 135/143/134 134/142/134
f 135/143/135 148/156/135 136/144/135
f 148/156/136 137/145/136 136/144/136
f 149/157/137 138/146/137 137/145/137
f 150/158/138 139/159/138 138/146/138
f 139/160/139 152/161/139 140/148/139
f 152/161/140 141/149/140 140/148/140
f 153/162/141 142/163/141 141/149/141
f 154/164/142 143/151/142 142/163/142
f 155/165/143 144/152/143 143/151/143
f 144/152/144 145/153/144 133/154/144
f 157/166/145 146/155/145 145/153/145
f 158/167/146 147/168/146 146/155/146
f 159/169/147 148/156/147 147/168/147
f 160/170/148 149/157/148 148/156/148
f 149/157/149 162/171/149 150/158/149
f 162/171/150 151/172/150 150/158/150
f 163/173/151 152/161/151 151/174/151
f 164/175/152 153/162/152 152/161/152
f 153/162/153 166/176/153 154/164/153
f 166/176/154 155/165/154 154/164/154
f 167/177/155 156/178/155 155/165/155
f 168/179/156 145/153/156 156/178/156
f 169/180/157 158/167/157 157/166/157
f 170/181/158 159/169/158 158/167/158
f 159/169/159 172/182/159 160/170/159
f 172/182/160 161/183/160 160/170/160
f 161/183/161 174/184/161 162/171/161
f 174/184/162 163/185/162 162/171/162
f 163/173/163 176/186/163 164/175/163
f 164/175/164 177/187/164 165/188/164
f 177/187/165 166/176/165 165/188/165
f 166/176/166 179/189/166 167/177/166
f 179/189/167 168/179/167 167/177/167
f 168/179/168 169/180/168 157/166/168
f 169/180/169 182/190/169 170/181/169
f 170/181/170 183/191/170 171/192/170
f 171/192/171 184/193/171 172/182/171
f 184/193/172 173/194/172 172/182/172
f 185/195/173 174/184/173 173/194/173
f 186/196/174 175/197/174 174/184/174
f 175/198/175 188/199/175 176/186/175
f 188/199/176 177/187/176 176/186/176
f 189/200/177 178/201/177 177/187/177
f 190/202/178 179/189/178 178/201/178
f 191/203/179 180/204/179 179/189/179
f 192/205/180 169/180/180 180/204/180
f 193/206/181 182/190/181 181/207/181
f 194/208/182 183/191/182 182/190/182
f 183/191/183 196/209/183 184/193/183
f 196/209/184 185/195/184 184/193/184
f 197/210/185 186/196/185 185/195/185
f 186/196/186 199/211/186 187/212/186
f 199/213/187 188/199/187 187/214/187
f 188/199/188 201/215/188 189/200/188
f 189/200/189 202/216/189 190/202/189
f 202/216/190 191/203/190 190/202/190
f 203/217/191 192/205/191 191/203/191
f 204/218/192 181/207/192 192/205/192
f 205/219/193 194/208/193 193/206/193
f 206/220/194 195/221/194 194/208/194
f 207/222/195 196/209/195 195/221/195
f 196/209/196 209/223/196 197/210/196
f 209/223/197 198/224/197 197/210/197
f 210/225/198 199/211/198 198/224/198
f 211/226/199 200/227/199 199/213/199
f 200/227/200 213/228/200 201/215/200
f 213/228/201 202/216/201 201/215/201
f 202/216/202 215/229/202 203/217/202
f 203/217/203 216/230/203 204/218/203
f 216/230/204 193/206/204 204/218/204
f 205/219/205 218/231/205 206/220/205
f 218/231/206 207/222/206 206/220/206
f 219/232/207 208/233/207 207/222/207
f 220/234/208 209/223/208 208/233/208
f 209/223/209 222/235/209 210/225/209
f 222/235/210 211/236/210 210/225/210
f 223/237/211 212/238/211 211/226/211
f 224/239/212 213/228/212 212/238/212
f 213/228/213 226/240/213 214/241/213
f 214/241/214 227/242/214 215/229/214
f 215/229/215 228/243/215 216/230/215
f 228/243/216 205/219/216 216/230/216
f 229/244/217 218/231/217 217/245/217
f 218/231/218 231/246/218 219/232/218
f 219/232/219 232/247/219 220/234/219
f 232/247/220 221/248/220 220/234/220
f 233/249/221 222/235/221 221/248/221
f 234/250/222 223/251/222 222/235/222
f 235/252/223 224/239/223 223/237/223
f 224/239/224 237/253/224 225/254/224
f 225/254/225 238/255/225 226/240/225
f 226/240/226 239/256/226 227/242/226
f 239/256/227 228/243/227 227/242/227
f 240/257/228 217/245/228 228/243/228
f 241/258/229 230/259/229 229/244/229
f 230/259/230 243/260/230 231/246/230
f 243/260/231 232/247/231 231/246/231
f 244/261/232 233/249/232 232/247/232
f 233/249/233 246/262/233 234/250/233
f 246/262/234 235/263/234 234/250/234
f 235/252/235 248/264/235 236/265/235
f 248/264/236 237/253/236 236/265/236
f 237/253/237 250/266/237 238/255/237
f 238/255/238 251/267/238 239/256/238
f 251/267/239 240/257/239 239/256/239
f 252/268/240 229/244/240 240/257/240
f 253/269/241 242/270/241 241/258/241
f 254/271/242 243/260/242 242/270/242
f 243/260/243 256/272/243 244/261/243
f 256/272/244 245/273/244 244/261/244
f 257/274/245 246/262/245 245/273/245
f 246/262/246 259/275/246 247/276/246
f 259/277/247 248/264/247 247/278/247
f 260/279/248 249/280/248 248/264/248
f 249/280/249 262/281/249 250/266/249
f 262/281/250 251/267/250 250/266/250
f 251/267/251 264/282/251 252/268/251
f 252/268/252 253/269/252 241/258/252
f 265/283/253 254/271/253 253/269/253
f 266/284/254 255/285/254 254/271/254
f 255/285/255 268/286/255 256/272/255
f 268/286/256 257/274/256 256/272/256
f 269/287/257 258/288/257 257/274/257
f 270/289/258 259/275/258 258/288/258
f 271/290/259 260/279/259 259/277/259
f 272/291/260 261/292/260 260/279/260
f 261/292/261 274/293/261 262/281/261
f 274/293/262 263/294/262 262/281/262
f 275/295/263 264/282/263 263/294/263
f 276/296/264 253/269/264 264/282/264
f 277/297/265 266/284/265 265/283/265
f 278/298/266 267/299/266 266/284/266
f 279/300/267 268/286/267 267/299/267
f 280/301/268 269/287/268 268/286/268
f 281/302/269 270/289/269 269/287/269
f 270/289/270 283/303/270 271/304/270
f 283/305/271 272/291/271 271/290/271
f 284/306/272 273/307/272 272/291/272
f 273/307/273 286/308/273 274/293/273
f 286/308/274 275/295/274 274/293/274
f 287/309/275 276/296/275 275/295/275
f 288/310/276 265/283/276 276/296/276
f 277/297/277 290/311/277 278/298/277
f 290/311/278 279/300/278 278/298/278
f 291/312/279 280/301/279 279/300/279
f 292/313/280 281/302/280 280/301/280
f 293/314/281 282/315/281 281/302/281
f 282/315/282 295/316/282 283/303/282
f 295/317/283 284/306/283 283/305/283
f 284/306/284 297/318/284 285/319/284
f 297/318/285 286/308/285 285/319/285
f 286/308/286 299/320/286 287/309/286
f 299/320/287 288/310/287 287/309/287
f 300/321/288 277/297/288 288/310/288
f 289/322/6 302/323/6 290/324/6
f 302/323/5 291/325/5 290/324/5
f 303/326/4 292/327/4 291/325/4
f 304/328/3 293/329/3 292/327/3
f 293/329/2 306/330/2 294/331/2
f 306/330/1 295/332/1 294/331/1
f 295/333/12 308/334/12 296/335/12
f 308/334/11 297/336/11 296/335/11
f 297/336/10 310/337/10 298/338/10
f 298/338/9 311/339/9 299/340/9
f 311/339/8 300/341/8 299/340/8
f 312/342/7 289/322/7 300/341/7
f 313/343/18 302/323/18 301/344/18
f 302/323/17 315/345/17 303/326/17
f 315/345/16 304/328/16 303/326/16
f 304/328/15 317/346/15 305/347/15
f 305/347/14 318/348/14 306/330/14
f 318/348/13 307/349/13 306/330/13
f 307/350/24 320/351/24 308/334/24
f 320/351/23 309/352/23 308/334/23
f 321/353/289 310/337/289 309/352/289
f 322/354/21 311/339/21 310/337/21
f 323/355/20 312/342/20 311/339/20
f 324/356/19 301/344/19 312/342/19
f 325/357/30 314/358/30 313/343/30
f 326/359/29 315/345/29 314/358/29
f 327/360/28 316/361/28 315/345/28
f 328/362/27 317/346/27 316/361/27
f 329/363/26 318/348/26 317/346/26
f 318/348/25 331/364/25 319/365/25
f 331/366/36 320/351/36 319/367/36
f 320/351/35 333/368/35 321/353/35
f 321/353/34 334/369/34 322/354/34
f 334/369/33 323/355/33 322/354/33
f 335/370/32 324/356/32 323/355/32
f 324/356/31 325/357/31 313/343/31
f 337/371/42 326/359/42 325/357/42
f 338/372/41 327/360/41 326/359/41
f 339/373/40 328/362/40 327/360/40
f 328/362/39 341/374/39 329/363/39
f 341/374/38 330/375/38 329/363/38
f 330/375/37 343/376/37 331/364/37
f 343/377/48 332/378/48 331/366/48
f 332/378/47 345/379/47 333/368/47
f 345/379/46 334/369/46 333/368/46
f 334/369/45 347/380/45 335/370/45
f 347/380/44 336/381/44 335/370/44
f 348/382/43 325/357/43 336/381/43
f 349/383/290 338/372/290 337/371/290
f 350/384/53 339/373/53 338/372/53
f 351/385/52 340/386/52 339/373/52
f 340/386/51 353/387/51 341/374/51
f 353/387/291 342/388/291 341/374/291
f 354/389/292 343/376/292 342/388/292
f 355/390/60 344/391/60 343/377/60
f 344/391/59 357/392/59 345/379/59
f 357/392/58 346/393/58 345/379/58
f 346/393/57 359/394/57 347/380/57
f 347/380/56 360/395/56 348/382/56
f 360/395/293 337/371/293 348/382/293
f 361/396/66 350/384/66 349/383/66
f 362/397/65 351/385/65 350/384/65
f 351/385/64 364/398/64 352/399/64
f 352/399/63 365/400/63 353/387/63
f 365/400/62 354/389/62 353/387/62
f 354/389/61 367/401/61 355/402/61
f 367/403/72 356/404/72 355/390/72
f 368/405/71 357/392/71 356/404/71
f 369/406/70 358/407/70 357/392/70
f 370/408/69 359/394/69 358/407/69
f 359/394/294 372/409/294 360/395/294
f 372/409/67 349/383/67 360/395/67
f 373/410/78 362/397/78 361/396/78
f 374/411/77 363/412/77 362/397/77
f 375/413/76 364/398/76 363/412/76
f 364/398/75 377/414/75 365/400/75
f 377/414/74 366/415/74 365/400/74
f 378/416/73 367/401/73 366/415/73
f 367/403/84 380/417/84 368/405/84
f 368/405/83 381/418/83 369/406/83
f 381/418/82 370/408/82 369/406/82
f 382/419/81 371/420/81 370/408/81
f 383/421/295 372/409/295 371/420/295
f 372/409/79 373/410/79 361/396/79
f 373/410/296 386/422/296 374/411/296
f 386/422/297 375/413/297 374/411/297
f 387/423/88 376/424/88 375/413/88
f 388/425/87 377/414/87 376/424/87
f 377/414/86 390/426/86 378/416/86
f 390/426/85 379/427/85 378/416/85
f 379/428/298 392/429/298 380/417/298
f 392/429/299 381/418/299 380/417/299
f 381/418/94 394/430/94 382/419/94
f 394/430/93 383/421/93 382/419/93
f 383/421/92 396/431/92 384/432/92
f 396/431/300 373/410/300 384/432/300
f 397/433/102 386/422/102 385/434/102
f 398/435/101 387/423/101 386/422/101
f 399/436/100 388/425/100 387/423/100
f 388/425/99 401/437/99 389/438/99
f 389/438/301 402/439/301 390/426/301
f 402/439/97 391/440/97 390/426/97
f 403/441/108 392/429/108 391/442/108
f 404/443/302 393/444/302 392/429/302
f 405/445/106 394/430/106 393/444/106
f 406/446/105 395/447/105 394/430/105
f 395/447/303 408/448/303 396/431/303
f 408/448/103 385/434/103 396/431/103
f 409/449/114 398/435/114 397/433/114
f 410/450/113 399/436/113 398/435/113
f 411/451/112 400/452/112 399/436/112
f 412/453/111 401/437/111 400/452/111
f 401/437/304 414/454/304 402/439/304
f 414/454/109 403/455/109 402/439/109
f 403/441/120 416/456/120 404/443/120
f 416/456/305 405/445/305 404/443/305
f 417/457/118 406/446/118 405/445/118
f 418/458/117 407/459/117 406/446/117
f 407/459/306 420/460/306 408/448/306
f 420/460/115 397/433/115 408/448/115
f 421/461/307 410/450/307 409/449/307
f 422/462/308 411/451/308 410/450/308
f 423/463/309 412/453/309 411/451/309
f 424/464/123 413/465/123 412/453/123
f 425/466/310 414/454/310 413/465/310
f 426/467/311 415/468/311 414/454/311
f 427/469/132 416/456/132 415/470/132
f 428/471/131 417/457/131 416/456/131
f 429/472/130 418/458/130 417/457/130
f 418/458/312 431/473/312 419/474/312
f 419/474/313 432/475/313 420/460/313
f 420/460/314 421/461/314 409/449/314
f 433/476/138 422/462/138 421/461/138
f 434/477/137 423/463/137 422/462/137
f 435/478/136 424/464/136 423/463/136
f 436/479/135 425/466/135 424/464/135
f 437/480/134 426/467/134 425/466/134
f 426/467/315 439/481/315 427/482/315
f 439/483/144 428/471/144 427/469/144
f 440/484/316 429/472/316 428/471/316
f 441/485/142 430/486/142 429/472/142
f 442/487/141 431/473/141 430/486/141
f 443/488/317 432/475/317 431/473/317
f 432/475/139 433/476/139 421/461/139
f 445/489/318 434/477/318 433/476/318
f 446/490/319 435/478/319 434/477/319
f 447/491/148 436/479/148 435/478/148
f 448/492/147 437/480/147 436/479/147
f 449/493/146 438/494/146 437/480/146
f 450/495/320 439/481/320 438/494/320
f 451/496/321 440/484/321 439/483/321
f 452/497/322 441/485/322 440/484/322
f 453/498/154 442/487/154 441/485/154
f 442/487/153 455/499/153 443/488/153
f 455/499/323 444/500/323 443/488/323
f 456/501/324 433/476/324 444/500/324
f 457/502/162 446/490/162 445/489/162
f 446/490/325 459/503/325 447/491/325
f 459/503/326 448/492/326 447/491/326
f 448/492/327 461/504/327 449/493/327
f 449/493/158 462/505/158 450/495/158
f 462/505/157 451/506/157 450/495/157
f 463/507/328 452/497/328 451/496/328
f 464/508/329 453/498/329 452/497/329
f 465/509/166 454/510/166 453/498/166
f 454/510/165 467/511/165 455/499/165
f 467/511/164 456/501/164 455/499/164
f 456/501/163 457/502/163 445/489/163
f 469/512/174 458/513/174 457/502/174
f 470/514/173 459/503/173 458/513/173
f 471/515/172 460/516/172 459/503/172
f 460/516/171 473/517/171 461/504/171
f 473/517/330 462/505/330 461/504/330
f 462/505/169 475/518/169 463/519/169
f 475/520/180 464/508/180 463/507/180
f 464/508/179 477/521/179 465/509/179
f 477/521/178 466/522/178 465/509/178
f 478/523/177 467/511/177 466/522/177
f 479/524/176 468/525/176 467/511/176
f 480/526/331 457/502/331 468/525/331
f 469/512/186 482/527/186 470/514/186
f 470/514/185 483/528/185 471/515/185
f 483/528/184 472/529/184 471/515/184
f 472/529/183 485/530/183 473/517/183
f 485/530/332 474/531/332 473/517/332
f 474/531/181 487/532/181 475/518/181
f 487/533/192 476/534/192 475/520/192
f 476/534/191 489/535/191 477/521/191
f 489/535/190 478/523/190 477/521/190
f 490/536/189 479/524/189 478/523/189
f 491/537/188 480/526/188 479/524/188
f 492/538/187 469/512/187 480/526/187
f 493/539/198 482/527/198 481/540/198
f 494/541/333 483/528/333 482/527/333
f 495/542/196 484/543/196 483/528/196
f 496/544/195 485/530/195 484/543/195
f 485/530/194 498/545/194 486/546/194
f 486/546/193 499/547/193 487/532/193
f 499/548/204 488/549/204 487/533/204
f 488/549/203 501/550/203 489/535/203
f 501/550/202 490/536/202 489/535/202
f 490/536/201 503/551/201 491/537/201
f 491/537/200 504/552/200 492/538/200
f 504/552/199 481/540/199 492/538/199
f 505/553/210 494/541/210 493/539/210
f 506/554/209 495/542/209 494/541/209
f 495/542/208 508/555/208 496/544/208
f 508/555/207 497/556/207 496/544/207
f 509/557/206 498/545/206 497/556/206
f 498/545/205 511/558/205 499/547/205
f 511/559/216 500/560/216 499/548/216
f 512/561/215 501/550/215 500/560/215
f 501/550/214 514/562/214 502/563/214
f 514/562/213 503/551/213 502/563/213
f 503/551/212 516/564/212 504/552/212
f 516/564/211 493/539/211 504/552/211
f 517/565/222 506/554/222 505/553/222
f 506/554/221 519/566/221 507/567/221
f 507/567/220 520/568/220 508/555/220
f 520/568/219 509/557/219 508/555/219
f 509/557/218 522/569/218 510/570/218
f 522/569/217 511/558/217 510/570/217
f 523/571/228 512/561/228 511/559/228
f 524/572/227 513/573/227 512/561/227
f 513/573/226 526/574/226 514/562/226
f 526/574/225 515/575/225 514/562/225
f 527/576/224 516/564/224 515/575/224
f 516/564/223 517/565/223 505/553/223
f 529/577/234 518/578/234 517/565/234
f 530/579/334 519/566/334 518/578/334
f 519/566/232 532/580/232 520/568/232
f 532/580/231 521/581/231 520/568/231
f 533/582/230 522/569/230 521/581/230
f 534/583/229 523/584/229 522/569/229
f 535/585/335 524/572/335 523/571/335
f 536/586/239 525/587/239 524/572/239
f 537/588/238 526/574/238 525/587/238
f 538/589/237 527/576/237 526/574/237
f 539/590/236 528/591/236 527/576/236
f 540/592/235 517/565/235 528/591/235
f 541/593/246 530/579/246 529/577/246
f 542/594/336 531/595/336 530/579/336
f 543/596/244 532/580/244 531/595/244
f 544/597/243 533/582/243 532/580/243
f 545/598/242 534/583/242 533/582/242
f 546/599/241 535/600/241 534/583/241
f 535/585/252 548/601/252 536/586/252
f 548/601/251 537/588/251 536/586/251
f 537/588/250 550/602/250 538/589/250
f 550/602/249 539/590/249 538/589/249
f 551/603/337 540/592/337 539/590/337
f 540/592/247 541/593/247 529/577/247
f 553/604/258 542/594/258 541/593/258
f 542/594/257 555/605/257 543/596/257
f 543/596/256 556/606/256 544/597/256
f 556/606/255 545/598/255 544/597/255
f 557/607/254 546/599/254 545/598/254
f 558/608/253 547/609/253 546/599/253
f 547/610/264 560/611/264 548/601/264
f 560/611/263 549/612/263 548/601/263
f 561/613/262 550/602/262 549/612/262
f 550/602/261 563/614/261 551/603/261
f 563/614/260 552/615/260 551/603/260
f 552/615/259 553/604/259 541/593/259
f 565/616/270 554/617/270 553/604/270
f 566/618/269 555/605/269 554/617/269
f 567/619/268 556/606/268 555/605/268
f 556/606/267 569/620/267 557/607/267
f 569/620/266 558/608/266 557/607/266
f 570/621/265 559/622/265 558/608/265
f 571/623/276 560/611/276 559/624/276
f 572/625/275 561/613/275 560/611/275
f 573/626/274 562/627/274 561/613/274
f 574/628/273 563/614/273 562/627/273
f 575/629/272 564/630/272 563/614/272
f 564/630/271 565/616/271 553/604/271
f 1/3/282 566/618/282 565/616/282
f 2/2/281 567/619/281 566/618/281
f 3/5/280 568/631/280 567/619/280
f 4/7/279 569/620/279 568/631/279
f 5/9/278 570/621/278 569/620/278
f 6/11/277 571/632/277 570/621/277
f 7/16/288 572/625/288 571/623/288
f 572/625/287 9/18/287 573/626/287
f 9/18/286 574/628/286 573/626/286
f 10/20/285 575/629/285 574/628/285
f 11/22/284 576/633/284 575/629/284
f 12/23/283 565/616/283 576/633/283
f 13/1/1 14/4/1 2/2/1
f 14/4/2 15/6/2 3/5/2
f 15/6/3 16/8/3 4/7/3
f 16/8/4 17/10/4 5/9/4
f 17/10/5 18/12/5 6/11/5
f 18/12/6 19/30/6 7/13/6
f 19/14/7 20/17/7 8/15/7
f 20/17/8 21/19/8 9/18/8
f 21/19/9 22/33/9 10/20/9
f 10/20/10 22/33/10 23/21/10
f 23/21/11 24/24/11 12/23/11
f 24/24/12 13/1/12 1/3/12
f 25/25/13 26/36/13 14/4/13
f 14/4/14 26/36/14 27/26/14
f 27/26/338 28/27/338 16/8/338
f 28/27/16 29/28/16 17/10/16
f 29/28/17 30/29/17 18/12/17
f 30/29/18 31/41/18 19/30/18
f 19/14/19 31/43/19 32/31/19
f 32/31/20 33/45/20 21/19/20
f 21/19/21 33/45/21 34/32/21
f 22/33/22 34/32/22 35/34/22
f 35/34/23 36/48/23 24/24/23
f 24/24/24 36/48/24 25/25/24
f 37/35/25 38/50/25 26/36/25
f 26/36/26 38/50/26 39/37/26
f 39/37/27 40/38/27 28/27/27
f 40/38/28 41/53/28 29/28/28
f 29/28/29 41/53/29 42/39/29
f 30/29/30 42/39/30 43/40/30
f 43/42/31 44/44/31 32/31/31
f 44/44/32 45/58/32 33/45/32
f 33/45/33 45/58/33 46/46/33
f 46/46/34 47/47/34 35/34/34
f 47/47/35 48/61/35 36/48/35
f 36/48/36 48/61/36 37/35/36
f 37/35/37 49/64/37 50/49/37
f 38/50/38 50/49/38 51/51/38
f 51/51/39 52/52/39 40/38/39
f 52/52/40 53/67/40 41/53/40
f 41/53/41 53/67/41 54/54/41
f 42/39/42 54/54/42 55/55/42
f 55/56/43 56/57/43 44/44/43
f 56/57/44 57/72/44 45/58/44
f 45/58/45 57/72/45 58/59/45
f 46/46/46 58/59/46 59/60/46
f 59/60/47 60/62/47 48/61/47
f 60/62/48 49/64/48 37/35/48
f 61/63/292 62/77/292 50/49/292
f 50/49/50 62/77/50 63/65/50
f 63/65/51 64/66/51 52/52/51
f 64/66/52 65/68/52 53/67/52
f 65/68/53 66/81/53 54/54/53
f 54/54/54 66/81/54 67/69/54
f 67/70/55 68/71/55 56/57/55
f 68/71/56 69/73/56 57/72/56
f 69/73/57 70/84/57 58/59/57
f 58/59/58 70/84/58 71/74/58
f 71/74/59 72/75/59 60/62/59
f 72/75/60 61/63/60 49/64/60
f 73/76/61 74/89/61 62/77/61
f 62/77/62 74/89/62 75/78/62
f 75/78/63 76/92/63 64/66/63
f 64/66/64 76/92/64 77/79/64
f 65/68/65 77/79/65 78/80/65
f 78/80/66 79/95/66 67/69/66
f 67/70/67 79/97/67 80/82/67
f 80/82/68 81/83/68 69/73/68
f 81/83/69 82/85/69 70/84/69
f 82/85/70 83/86/70 71/74/70
f 83/86/71 84/87/71 72/75/71
f 84/87/72 73/76/72 61/63/72
f 85/88/73 86/90/73 74/89/73
f 86/90/74 87/105/74 75/78/74
f 75/78/75 87/105/75 88/91/75
f 88/91/76 89/93/76 77/79/76
f 89/93/77 90/94/77 78/80/77
f 90/94/78 91/109/78 79/95/78
f 91/96/79 92/98/79 80/82/79
f 92/98/80 93/99/80 81/83/80
f 93/99/81 94/100/81 82/85/81
f 94/100/82 95/101/82 83/86/82
f 95/101/83 96/102/83 84/87/83
f 96/102/84 85/88/84 73/76/84
f 97/103/85 98/116/85 86/90/85
f 86/90/86 98/116/86 99/104/86
f 99/104/87 100/106/87 88/91/87
f 100/106/88 101/107/88 89/93/88
f 101/107/339 102/120/339 90/94/339
f 90/94/296 102/120/296 103/108/296
f 103/110/300 104/111/300 92/98/300
f 104/111/340 105/123/340 93/99/340
f 93/99/93 105/123/93 106/112/93
f 106/112/94 107/113/94 95/101/94
f 107/113/299 108/114/299 96/102/299
f 108/114/298 97/103/298 85/88/298
f 109/115/97 110/117/97 98/116/97
f 110/117/98 111/127/98 99/104/98
f 99/104/99 111/127/99 112/118/99
f 112/118/100 113/130/100 101/107/100
f 101/107/101 113/130/101 114/119/101
f 114/119/102 115/133/102 103/108/102
f 115/121/103 116/122/103 104/111/103
f 116/122/303 117/136/303 105/123/303
f 105/123/105 117/136/105 118/124/105
f 118/124/106 119/125/106 107/113/106
f 119/125/341 120/140/341 108/114/341
f 108/114/108 120/140/108 109/115/108
f 109/115/109 121/141/109 122/126/109
f 122/126/110 123/128/110 111/127/110
f 123/128/111 124/129/111 112/118/111
f 124/129/112 125/131/112 113/130/112
f 125/131/342 126/132/342 114/119/342
f 126/132/114 127/147/114 115/133/114
f 127/134/115 128/135/115 116/122/115
f 128/135/306 129/150/306 117/136/306
f 117/136/117 129/150/117 130/137/117
f 118/124/118 130/137/118 131/138/118
f 119/125/305 131/138/305 132/139/305
f 132/139/120 121/141/120 109/115/120
f 121/141/311 133/154/311 134/142/311
f 134/142/122 135/143/122 123/128/122
f 135/143/343 136/144/343 124/129/343
f 136/144/124 137/145/124 125/131/124
f 137/145/308 138/146/308 126/132/308
f 138/146/344 139/159/344 127/147/344
f 127/134/314 139/160/314 140/148/314
f 128/135/128 140/148/128 141/149/128
f 141/149/312 142/163/312 130/137/312
f 130/137/345 142/163/345 143/151/345
f 131/138/131 143/151/131 144/152/131
f 144/152/132 133/154/132 121/141/132
f 145/153/133 146/155/133 134/142/133
f 146/155/134 147/168/134 135/143/134
f 135/143/135 147/168/135 148/156/135
f 148/156/136 149/157/136 137/145/136
f 149/157/346 150/158/346 138/146/346
f 150/158/347 151/172/347 139/159/347
f 139/160/348 151/174/348 152/161/348
f 152/161/317 153/162/317 141/149/317
f 153/162/141 154/164/141 142/163/141
f 154/164/142 155/165/142 143/151/142
f 155/165/316 156/178/316 144/152/316
f 144/152/144 156/178/144 145/153/144
f 157/166/349 158/167/349 146/155/349
f 158/167/146 159/169/146 147/168/146
f 159/169/147 160/170/147 148/156/147
f 160/170/148 161/183/148 149/157/148
f 149/157/319 161/183/319 162/171/319
f 162/171/318 163/185/318 151/172/318
f 163/173/324 164/175/324 152/161/324
f 164/175/323 165/188/323 153/162/323
f 153/162/153 165/188/153 166/176/153
f 166/176/154 167/177/154 155/165/154
f 167/177/155 168/179/155 156/178/155
f 168/179/350 157/166/350 145/153/350
f 169/180/351 170/181/351 158/167/351
f 170/181/352 171/192/352 159/169/352
f 159/169/327 171/192/327 172/182/327
f 172/182/326 173/194/326 161/183/326
f 161/183/325 173/194/325 174/184/325
f 174/184/353 175/197/353 163/185/353
f 163/173/163 175/198/163 176/186/163
f 164/175/354 176/186/354 177/187/354
f 177/187/165 178/201/165 166/176/165
f 166/176/166 178/201/166 179/189/166
f 179/189/329 180/204/329 168/179/329
f 168/179/328 180/204/328 169/180/328
f 169/180/169 181/207/169 182/190/169
f 170/181/330 182/190/330 183/191/330
f 171/192/171 183/191/171 184/193/171
f 184/193/172 185/195/172 173/194/172
f 185/195/355 186/196/355 174/184/355
f 186/196/356 187/212/356 175/197/356
f 175/198/331 187/214/331 188/199/331
f 188/199/176 189/200/176 177/187/176
f 189/200/177 190/202/177 178/201/177
f 190/202/178 191/203/178 179/189/178
f 191/203/357 192/205/357 180/204/357
f 192/205/180 181/207/180 169/180/180
f 193/206/181 194/208/181 182/190/181
f 194/208/332 195/221/332 183/191/332
f 183/191/183 195/221/183 196/209/183
f 196/209/184 197/210/184 185/195/184
f 197/210/358 198/224/358 186/196/358
f 186/196/186 198/224/186 199/211/186
f 199/213/187 200/227/187 188/199/187
f 188/199/359 200/227/359 201/215/359
f 189/200/189 201/215/189 202/216/189
f 202/216/190 203/217/190 191/203/190
f 203/217/191 204/218/191 192/205/191
f 204/218/192 193/206/192 181/207/192
f 205/219/360 206/220/360 194/208/360
f 206/220/194 207/222/194 195/221/194
f 207/222/195 208/233/195 196/209/195
f 196/209/196 208/233/196 209/223/196
f 209/223/333 210/225/333 198/224/333
f 210/225/198 211/236/198 199/211/198
f 211/226/199 212/238/199 200/227/199
f 200/227/361 212/238/361 213/228/361
f 213/228/201 214/241/201 202/216/201
f 202/216/202 214/241/202 215/229/202
f 203/217/362 215/229/362 216/230/362
f 216/230/363 205/219/363 193/206/363
f 205/219/205 217/245/205 218/231/205
f 218/231/364 219/232/364 207/222/364
f 219/232/207 220/234/207 208/233/207
f 220/234/208 221/248/208 209/223/208
f 209/223/209 221/248/209 222/235/209
f 222/235/210 223/251/210 211/236/210
f 223/237/211 224/239/211 212/238/211
f 224/239/212 225/254/212 213/228/212
f 213/228/213 225/254/213 226/240/213
f 214/241/214 226/240/214 227/242/214
f 215/229/215 227/242/215 228/243/215
f 228/243/216 217/245/216 205/219/216
f 229/244/217 230/259/217 218/231/217
f 218/231/218 230/259/218 231/246/218
f 219/232/219 231/246/219 232/247/219
f 232/247/220 233/249/220 221/248/220
f 233/249/221 234/250/221 222/235/221
f 234/250/222 235/263/222 223/251/222
f 235/252/223 236/265/223 224/239/223
f 224/239/224 236/265/224 237/253/224
f 225/254/225 237/253/225 238/255/225
f 226/240/226 238/255/226 239/256/226
f 239/256/365 240/257/365 228/243/365
f 240/257/228 229/244/228 217/245/228
f 241/258/229 242/270/229 230/259/229
f 230/259/230 242/270/230 243/260/230
f 243/260/231 244/261/231 232/247/231
f 244/261/232 245/273/232 233/249/232
f 233/249/233 245/273/233 246/262/233
f 246/262/234 247/276/234 235/263/234
f 235/252/235 247/278/235 248/264/235
f 248/264/366 249/280/366 237/253/366
f 237/253/237 249/280/237 250/266/237
f 238/255/238 250/266/238 251/267/238
f 251/267/239 252/268/239 240/257/239
f 252/268/335 241/258/335 229/244/335
f 253/269/241 254/271/241 242/270/241
f 254/271/242 255/285/242 243/260/242
f 243/260/243 255/285/243 256/272/243
f 256/272/244 257/274/244 245/273/244
f 257/274/336 258/288/336 246/262/336
f 246/262/246 258/288/246 259/275/246
f 259/277/247 260/279/247 248/264/247
f 260/279/337 261/292/337 249/280/337
f 249/280/249 261/292/249 262/281/249
f 262/281/250 263/294/250 251/267/250
f 251/267/251 263/294/251 264/282/251
f 252/268/252 264/282/252 253/269/252
f 265/283/253 266/284/253 254/271/253
f 266/284/254 267/299/254 255/285/254
f 255/285/255 267/299/255 268/286/255
f 268/286/256 269/287/256 257/274/256
f 269/287/257 270/289/257 258/288/257
f 270/289/258 271/304/258 259/275/258
f 271/290/259 272/291/259 260/279/259
f 272/291/260 273/307/260 261/292/260
f 261/292/261 273/307/261 274/293/261
f 274/293/262 275/295/262 263/294/262
f 275/295/263 276/296/263 264/282/263
f 276/296/264 265/283/264 253/269/264
f 277/297/265 278/298/265 266/284/265
f 278/298/266 279/300/266 267/299/266
f 279/300/267 280/301/267 268/286/267
f 280/301/367 281/302/367 269/287/367
f 281/302/269 282/315/269 270/289/269
f 270/289/270 282/315/270 283/303/270
f 283/305/271 284/306/271 272/291/271
f 284/306/272 285/319/272 273/307/272
f 273/307/368 285/319/368 286/308/368
f 286/308/274 287/309/274 275/295/274
f 287/309/275 288/310/275 276/296/275
f 288/310/276 277/297/276 265/283/276
f 277/297/277 289/634/277 290/311/277
f 290/311/278 291/312/278 279/300/278
f 291/312/279 292/313/279 280/301/279
f 292/313/280 293/314/280 281/302/280
f 293/314/281 294/635/281 282/315/281
f 282/315/282 294/635/282 295/316/282
f 295/317/283 296/636/283 284/306/283
f 284/306/284 296/636/284 297/318/284
f 297/318/285 298/637/285 286/308/285
f 286/308/286 298/637/286 299/320/286
f 299/320/287 300/321/287 288/310/287
f 300/321/288 289/634/288 277/297/288
f 289/322/6 301/344/6 302/323/6
f 302/323/5 303/326/5 291/325/5
f 303/326/4 304/328/4 292/327/4
f 304/328/3 305/347/3 293/329/3
f 293/329/2 305/347/2 306/330/2
f 306/330/1 307/349/1 295/332/1
f 295/333/12 307/350/12 308/334/12
f 308/334/11 309/352/11 297/336/11
f 297/336/10 309/352/10 310/337/10
f 298/338/9 310/337/9 311/339/9
f 311/339/8 312/342/8 300/341/8
f 312/342/7 301/344/7 289/322/7
f 313/343/18 314/358/18 302/323/18
f 302/323/17 314/358/17 315/345/17
f 315/345/16 316/361/16 304/328/16
f 304/328/338 316/361/338 317/346/338
f 305/347/14 317/346/14 318/348/14
f 318/348/13 319/365/13 307/349/13
f 307/350/24 319/367/24 320/351/24
f 320/351/23 321/353/23 309/352/23
f 321/353/22 322/354/22 310/337/22
f 322/354/21 323/355/21 311/339/21
f 323/355/20 324/356/20 312/342/20
f 324/356/19 313/343/19 301/344/19
f 325/357/30 326/359/30 314/358/30
f 326/359/29 327/360/29 315/345/29
f 327/360/28 328/362/28 316/361/28
f 328/362/27 329/363/27 317/346/27
f 329/363/26 330/375/26 318/348/26
f 318/348/25 330/375/25 331/364/25
f 331/366/36 332/378/36 320/351/36
f 320/351/35 332/378/35 333/368/35
f 321/353/34 333/368/34 334/369/34
f 334/369/33 335/370/33 323/355/33
f 335/370/32 336/381/32 324/356/32
f 324/356/31 336/381/31 325/357/31
f 337/371/42 338/372/42 326/359/42
f 338/372/41 339/373/41 327/360/41
f 339/373/40 340/386/40 328/362/40
f 328/362/39 340/386/39 341/374/39
f 341/374/38 342/388/38 330/375/38
f 330/375/37 342/388/37 343/376/37
f 343/377/48 344/391/48 332/378/48
f 332/378/47 344/391/47 345/379/47
f 345/379/46 346/393/46 334/369/46
f 334/369/45 346/393/45 347/380/45
f 347/380/44 348/382/44 336/381/44
f 348/382/43 337/371/43 325/357/43
f 349/383/54 350/384/54 338/372/54
f 350/384/369 351/385/369 339/373/369
f 351/385/52 352/399/52 340/386/52
f 340/386/51 352/399/51 353/387/51
f 353/387/50 354/389/50 342/388/50
f 354/389/292 355/402/292 343/376/292
f 355/390/60 356/404/60 344/391/60
f 344/391/59 356/404/59 357/392/59
f 357/392/58 358/407/58 346/393/58
f 346/393/57 358/407/57 359/394/57
f 347/380/370 359/394/370 360/395/370
f 360/395/55 349/383/55 337/371/55
f 361/396/66 362/397/66 350/384/66
f 362/397/65 363/412/65 351/385/65
f 351/385/64 363/412/64 364/398/64
f 352/399/63 364/398/63 365/400/63
f 365/400/62 366/415/62 354/389/62
f 354/389/61 366/415/61 367/401/61
f 367/403/72 368/405/72 356/404/72
f 368/405/71 369/406/71 357/392/71
f 369/406/70 370/408/70 358/407/70
f 370/408/69 371/420/69 359/394/69
f 359/394/68 371/420/68 372/409/68
f 372/409/67 361/396/67 349/383/67
f 373/410/78 374/411/78 362/397/78
f 374/411/371 375/413/371 363/412/371
f 375/413/76 376/424/76 364/398/76
f 364/398/75 376/424/75 377/414/75
f 377/414/74 378/416/74 366/415/74
f 378/416/73 379/427/73 367/401/73
f 367/403/84 379/428/84 380/417/84
f 368/405/83 380/417/83 381/418/83
f 381/418/82 382/419/82 370/408/82
f 382/419/81 383/421/81 371/420/81
f 383/421/80 384/432/80 372/409/80
f 372/409/79 384/432/79 373/410/79
f 373/410/372 385/434/372 386/422/372
f 386/422/89 387/423/89 375/413/89
f 387/423/88 388/425/88 376/424/88
f 388/425/87 389/438/87 377/414/87
f 377/414/373 389/438/373 390/426/373
f 390/426/374 391/440/374 379/427/374
f 379/428/96 391/442/96 392/429/96
f 392/429/95 393/444/95 381/418/95
f 381/418/94 393/444/94 394/430/94
f 394/430/93 395/447/93 383/421/93
f 383/421/340 395/447/340 396/431/340
f 396/431/300 385/434/300 373/410/300
f 397/433/102 398/435/102 386/422/102
f 398/435/101 399/436/101 387/423/101
f 399/436/100 400/452/100 388/425/100
f 388/425/99 400/452/99 401/437/99
f 389/438/98 401/437/98 402/439/98
f 402/439/97 403/455/97 391/440/97
f 403/441/108 404/443/108 392/429/108
f 404/443/341 405/445/341 393/444/341
f 405/445/106 406/446/106 394/430/106
f 406/446/105 407/459/105 395/447/105
f 395/447/303 407/459/303 408/448/303
f 408/448/103 397/433/103 385/434/103
f 409/449/114 410/450/114 398/435/114
f 410/450/113 411/451/113 399/436/113
f 411/451/112 412/453/112 400/452/112
f 412/453/111 413/465/111 401/437/111
f 401/437/110 413/465/110 414/454/110
f 414/454/375 415/468/375 403/455/375
f 403/441/120 415/470/120 416/456/120
f 416/456/305 417/457/305 405/445/305
f 417/457/118 418/458/118 406/446/118
f 418/458/117 419/474/117 407/459/117
f 407/459/116 419/474/116 420/460/116
f 420/460/115 409/449/115 397/433/115
f 421/461/307 422/462/307 410/450/307
f 422/462/125 423/463/125 411/451/125
f 423/463/309 424/464/309 412/453/309
f 424/464/343 425/466/343 413/465/343
f 425/466/122 426/467/122 414/454/122
f 426/467/121 427/482/121 415/468/121
f 427/469/376 428/471/376 416/456/376
f 428/471/377 429/472/377 417/457/377
f 429/472/130 430/486/130 418/458/130
f 418/458/129 430/486/129 431/473/129
f 419/474/128 431/473/128 432/475/128
f 420/460/314 432/475/314 421/461/314
f 433/476/138 434/477/138 422/462/138
f 434/477/137 435/478/137 423/463/137
f 435/478/136 436/479/136 424/464/136
f 436/479/135 437/480/135 425/466/135
f 437/480/134 438/494/134 426/467/134
f 426/467/378 438/494/378 439/481/378
f 439/483/379 440/484/379 428/471/379
f 440/484/380 441/485/380 429/472/380
f 441/485/142 442/487/142 430/486/142
f 442/487/141 443/488/141 431/473/141
f 443/488/317 444/500/317 432/475/317
f 432/475/139 444/500/139 433/476/139
f 445/489/318 446/490/318 434/477/318
f 446/490/319 447/491/319 435/478/319
f 447/491/148 448/492/148 436/479/148
f 448/492/147 449/493/147 437/480/147
f 449/493/381 450/495/381 438/494/381
f 450/495/349 451/506/349 439/481/349
f 451/496/156 452/497/156 440/484/156
f 452/497/155 453/498/155 441/485/155
f 453/498/154 454/510/154 442/487/154
f 442/487/153 454/510/153 455/499/153
f 455/499/323 456/501/323 444/500/323
f 456/501/324 445/489/324 433/476/324
f 457/502/162 458/513/162 446/490/162
f 446/490/161 458/513/161 459/503/161
f 459/503/160 460/516/160 448/492/160
f 448/492/327 460/516/327 461/504/327
f 449/493/352 461/504/352 462/505/352
f 462/505/351 463/519/351 451/506/351
f 463/507/168 464/508/168 452/497/168
f 464/508/167 465/509/167 453/498/167
f 465/509/166 466/522/166 454/510/166
f 454/510/382 466/522/382 467/511/382
f 467/511/164 468/525/164 456/501/164
f 456/501/163 468/525/163 457/502/163
f 469/512/174 470/514/174 458/513/174
f 470/514/355 471/515/355 459/503/355
f 471/515/172 472/529/172 460/516/172
f 460/516/171 472/529/171 473/517/171
f 473/517/330 474/531/330 462/505/330
f 462/505/169 474/531/169 475/518/169
f 475/520/180 476/534/180 464/508/180
f 464/508/357 476/534/357 477/521/357
f 477/521/178 478/523/178 466/522/178
f 478/523/177 479/524/177 467/511/177
f 479/524/383 480/526/383 468/525/383
f 480/526/331 469/512/331 457/502/331
f 469/512/186 481/540/186 482/527/186
f 470/514/185 482/527/185 483/528/185
f 483/528/184 484/543/184 472/529/184
f 472/529/183 484/543/183 485/530/183
f 485/530/332 486/546/332 474/531/332
f 474/531/181 486/546/181 487/532/181
f 487/533/192 488/549/192 476/534/192
f 476/534/384 488/549/384 489/535/384
f 489/535/190 490/536/190 478/523/190
f 490/536/189 491/537/189 479/524/189
f 491/537/188 492/538/188 480/526/188
f 492/538/187 481/540/187 469/512/187
f 493/539/385 494/541/385 482/527/385
f 494/541/333 495/542/333 483/528/333
f 495/542/196 496/544/196 484/543/196
f 496/544/195 497/556/195 485/530/195
f 485/530/194 497/556/194 498/545/194
f 486/546/193 498/545/193 499/547/193
f 499/548/204 500/560/204 488/549/204
f 488/549/203 500/560/203 501/550/203
f 501/550/202 502/563/202 490/536/202
f 490/536/201 502/563/201 503/551/201
f 491/537/200 503/551/200 504/552/200
f 504/552/386 493/539/386 481/540/386
f 505/553/210 506/554/210 494/541/210
f 506/554/209 507/567/209 495/542/209
f 495/542/208 507/567/208 508/555/208
f 508/555/207 509/557/207 497/556/207
f 509/557/364 510/570/364 498/545/364
f 498/545/205 510/570/205 511/558/205
f 511/559/216 512/561/216 500/560/216
f 512/561/387 513/573/387 501/550/387
f 501/550/214 513/573/214 514/562/214
f 514/562/213 515/575/213 503/551/213
f 503/551/212 515/575/212 516/564/212
f 516/564/211 505/553/211 493/539/211
f 517/565/222 518/578/222 506/554/222
f 506/554/221 518/578/221 519/566/221
f 507/567/220 519/566/220 520/568/220
f 520/568/219 521/581/219 509/557/219
f 509/557/218 521/581/218 522/569/218
f 522/569/217 523/584/217 511/558/217
f 523/571/228 524/572/228 512/561/228
f 524/572/227 525/587/227 513/573/227
f 513/573/226 525/587/226 526/574/226
f 526/574/225 527/576/225 515/575/225
f 527/576/224 528/591/224 516/564/224
f 516/564/223 528/591/223 517/565/223
f 529/577/234 530/579/234 518/578/234
f 530/579/334 531/595/334 519/566/334
f 519/566/232 531/595/232 532/580/232
f 532/580/231 533/582/231 521/581/231
f 533/582/230 534/583/230 522/569/230
f 534/583/229 535/600/229 523/584/229
f 535/585/240 536/586/240 524/572/240
f 536/586/239 537/588/239 525/587/239
f 537/588/238 538/589/238 526/574/238
f 538/589/237 539/590/237 527/576/237
f 539/590/236 540/592/236 528/591/236
f 540/592/235 529/577/235 517/565/235
f 541/593/246 542/594/246 530/579/246
f 542/594/336 543/596/336 531/595/336
f 543/596/244 544/597/244 532/580/244
f 544/597/243 545/598/243 533/582/243
f 545/598/242 546/599/242 534/583/242
f 546/599/241 547/609/241 535/600/241
f 535/585/252 547/610/252 548/601/252
f 548/601/251 549/612/251 537/588/251
f 537/588/250 549/612/250 550/602/250
f 550/602/249 551/603/249 539/590/249
f 551/603/337 552/615/337 540/592/337
f 540/592/247 552/615/247 541/593/247
f 553/604/258 554/617/258 542/594/258
f 542/594/257 554/617/257 555/605/257
f 543/596/256 555/605/256 556/606/256
f 556/606/255 557/607/255 545/598/255
f 557/607/254 558/608/254 546/599/254
f 558/608/253 559/622/253 547/609/253
f 547/610/264 559/624/264 560/611/264
f 560/611/263 561/613/263 549/612/263
f 561/613/262 562/627/262 550/602/262
f 550/602/261 562/627/261 563/614/261
f 563/614/260 564/630/260 552/615/260
f 552/615/259 564/630/259 553/604/259
f 565/616/270 566/618/270 554/617/270
f 566/618/269 567/619/269 555/605/269
f 567/619/367 568/631/367 556/606/367
f 556/606/267 568/631/267 569/620/267
f 569/620/266 570/621/266 558/608/266
f 570/621/265 571/632/265 559/622/265
f 571/623/276 572/625/276 560/611/276
f 572/625/275 573/626/275 561/613/275
f 573/626/274 574/628/274 562/627/274
f 574/628/368 575/629/368 563/614/368
f 575/629/272 576/633/272 564/630/272
f 564/630/271 576/633/271 565/616/271
f 1/3/282 2/2/282 566/618/282
f 2/2/281 3/5/281 567/619/281
f 3/5/280 4/7/280 568/631/280
f 4/7/279 5/9/279 569/620/279
f 5/9/278 6/11/278 570/621/278
f 6/11/277 7/13/277 571/632/277
f 7/16/288 8/15/288 572/625/288
f 572/625/287 8/15/287 9/18/287
f 9/18/286 10/20/286 574/628/286
f 10/20/285 11/22/285 575/629/285
f 11/22/284 12/23/284 576/633/284
f 12/23/283 1/3/283 565/616/283
o Cone
v -0.054386 -0.002099 0.929992
v -0.054386 -0.014162 0.931180
v -0.054386 -0.025761 0.934699
v -0.054386 -0.036451 0.940413
v -0.054386 -0.045820 0.948102
v -0.054386 -0.053510 0.957472
v -0.054386 -0.059223 0.968162
v -0.054386 -0.062742 0.979761
v -0.054386 -0.063930 0.991823
v -0.054386 -0.062742 1.003886
v -0.054386 -0.059223 1.015485
v -0.054386 -0.053510 1.026175
v -0.054386 -0.045820 1.035544
v -0.054386 -0.036451 1.043234
v -0.054386 -0.025761 1.048948
v -0.054386 -0.014162 1.052466
v -0.054386 -0.002099 1.053654
v -0.054386 0.009963 1.052466
v -0.054386 0.021562 1.048948
v -0.054386 0.032252 1.043234
v -0.054386 0.041622 1.035544
v -0.054386 0.049311 1.026175
v -0.054386 0.055025 1.015485
v -0.054386 0.058544 1.003886
v -0.054386 0.059732 0.991823
v -0.054386 0.058544 0.979761
v -0.054386 0.055025 0.968162
v -0.054386 0.049311 0.957472
v -0.054386 0.041622 0.948102
v -0.054386 0.032252 0.940413
v -0.054386 0.021562 0.934699
v -0.054386 0.009963 0.931180
v 0.069275 -0.002099 0.991823
vn 0.4455 -0.0878 -0.8910
vn 0.4455 -0.2599 -0.8567
vn 0.4455 -0.4220 -0.7896
vn 0.4455 -0.5680 -0.6921
vn 0.4455 -0.6921 -0.5680
vn 0.4455 -0.7896 -0.4220
vn 0.4455 -0.8567 -0.2599
vn 0.4455 -0.8910 -0.0878
vn 0.4455 -0.8910 0.0878
vn 0.4455 -0.8567 0.2599
vn 0.4455 -0.7896 0.4220
vn 0.4455 -0.6921 0.5680
vn 0.4455 -0.5680 0.6921
vn 0.4455 -0.4220 0.7896
vn 0.4455 -0.2599 0.8567
vn 0.4455 -0.0878 0.8910
vn 0.4455 0.0878 0.8910
vn 0.4455 0.2599 0.8567
vn 0.4455 0.4220 0.7896
vn 0.4455 0.5680 0.6921
vn 0.4455 0.6921 0.5680
vn 0.4455 0.7896 0.4220
vn 0.4455 0.8567 0.2599
vn 0.4455 0.8910 0.0878
vn 0.4455 0.8910 -0.0878
vn 0.4455 0.8567 -0.2599
vn 0.4455 0.7896 -0.4220
vn 0.4455 0.6921 -0.5680
vn 0.4455 0.5680 -0.6921
vn 0.4455 0.4220 -0.7896
vn -1.0000 -0.0000 -0.0000
vn 0.4455 0.2599 -0.8567
vn 0.4455 0.0878 -0.8910
vt 0.250000 0.490000
vt 0.250000 0.250000
vt 0.296822 0.485388
vt 0.341844 0.471731
vt 0.383337 0.449553
vt 0.419706 0.419706
vt 0.449553 0.383337
vt 0.471731 0.341844
vt 0.485388 0.296822
vt 0.490000 0.250000
vt 0.485388 0.203178
vt 0.471731 0.158156
vt 0.449553 0.116663
vt 0.419706 0.080294
vt 0.383337 0.050447
vt 0.341844 0.028269
vt 0.296822 0.014612
vt 0.250000 0.010000
vt 0.203178 0.014612
vt 0.158156 0.028269
vt 0.116663 0.050447
vt 0.080294 0.080294
vt 0.050447 0.116663
vt 0.028269 0.158156
vt 0.014612 0.203178
vt 0.010000 0.250000
vt 0.014612 0.296822
vt 0.028269 0.341844
vt 0.050447 0.383337
vt 0.080294 0.419706
vt 0.116663 0.449553
vt 0.158156 0.471731
vt 0.796822 0.014612
vt 0.514612 0.203178
vt 0.703178 0.485388
vt 0.203178 0.485388
vt 0.750000 0.490000
vt 0.796822 0.485388
vt 0.841844 0.471731
vt 0.883337 0.449553
vt 0.919706 0.419706
vt 0.949553 0.383337
vt 0.971731 0.341844
vt 0.985388 0.296822
vt 0.990000 0.250000
vt 0.985388 0.203178
vt 0.971731 0.158156
vt 0.949553 0.116663
vt 0.919706 0.080294
vt 0.883337 0.050447
vt 0.841844 0.028269
vt 0.750000 0.010000
vt 0.703178 0.014612
vt 0.658156 0.028269
vt 0.616663 0.050447
vt 0.580294 0.080294
vt 0.550447 0.116663
vt 0.528269 0.158156
vt 0.510000 0.250000
vt 0.514612 0.296822
vt 0.528269 0.341844
vt 0.550447 0.383337
vt 0.580294 0.419706
vt 0.616663 0.449553
vt 0.658156 0.471731
s 0
f 577/638/388 609/639/388 578/640/388
f 578/640/389 609/639/389 579/641/389
f 579/641/390 609/639/390 580/642/390
f 580/642/391 609/639/391 581/643/391
f 581/643/392 609/639/392 582/644/392
f 582/644/393 609/639/393 583/645/393
f 583/645/394 609/639/394 584/646/394
f 584/646/395 609/639/395 585/647/395
f 585/647/396 609/639/396 586/648/396
f 586/648/397 609/639/397 587/649/397
f 587/649/398 609/639/398 588/650/398
f 588/650/399 609/639/399 589/651/399
f 589/651/400 609/639/400 590/652/400
f 590/652/401 609/639/401 591/653/401
f 591/653/402 609/639/402 592/654/402
f 592/654/403 609/639/403 593/655/403
f 593/655/404 609/639/404 594/656/404
f 594/656/405 609/639/405 595/657/405
f 595/657/406 609/639/406 596/658/406
f 596/658/407 609/639/407 597/659/407
f 597/659/408 609/639/408 598/660/408
f 598/660/409 609/639/409 599/661/409
f 599/661/410 609/639/410 600/662/410
f 600/662/411 609/639/411 601/663/411
f 601/663/412 609/639/412 602/664/412
f 602/664/413 609/639/413 603/665/413
f 603/665/414 609/639/414 604/666/414
f 604/666/415 609/639/415 605/667/415
f 605/667/416 609/639/416 606/668/416
f 606/668/417 609/639/417 607/669/417
f 592/670/418 600/671/418 608/672/418
f 607/669/419 609/639/419 608/673/419
f 608/673/420 609/639/420 577/638/420
f 608/672/418 577/674/418 578/675/418
f 578/675/418 579/676/418 580/677/418
f 580/677/418 581/678/418 582/679/418
f 582/679/418 583/680/418 584/681/418
f 584/681/418 585/682/418 586/683/418
f 586/683/418 587/684/418 588/685/418
f 588/685/418 589/686/418 590/687/418
f 590/687/418 591/688/418 592/670/418
f 592/670/418 593/689/418 594/690/418
f 594/690/418 595/691/418 596/692/418
f 596/692/418 597/693/418 598/694/418
f 598/694/418 599/695/418 600/671/418
f 600/671/418 601/696/418 602/697/418
f 602/697/418 603/698/418 604/699/418
f 604/699/418 605/700/418 606/701/418
f 606/701/418 607/702/418 608/672/418
f 608/672/418 578/675/418 580/677/418
f 580/677/418 582/679/418 584/681/418
f 584/681/418 586/683/418 588/685/418
f 588/685/418 590/687/418 592/670/418
f 592/670/418 594/690/418 596/692/418
f 596/692/418 598/694/418 600/671/418
f 600/671/418 602/697/418 604/699/418
f 604/699/418 606/701/418 608/672/418
f 608/672/418 580/677/418 584/681/418
f 584/681/418 588/685/418 592/670/418
f 592/670/418 596/692/418 600/671/418
f 600/671/418 604/699/418 608/672/418
f 608/672/418 584/681/418 592/670/418
