{
  "accessors": [
    {
      "bufferView": 2,
      "componentType": 5126,
      "count": 22,
      "max": [
        5.439905166625977,
        3.99200701713562,
        0.0415630005300045
      ],
      "min": [
        -4.979931831359863,
        -4.72567081451416,
        -0.04835199937224388
      ],
      "type": "VEC3"
    },
    {
      "bufferView": 1,
      "componentType": 5126,
      "count": 22,
      "max": [
        0.0,
        0.0
      ],
      "min": [
        0.0,
        0.0
      ],
      "type": "VEC2"
    },
    {
      "bufferView": 0,
      "componentType": 5125,
      "count": 22,
      "type": "SCALAR"
    },
    {
      "bufferView": 2,
      "byteOffset": 264,
      "componentType": 5126,
      "count": 65532,
      "max": [
        -2.044163942337036,
        1.5046240091323853,
        0.04134900122880936
      ],
      "min": [
        -5.060057163238525,
        -4.661273956298828,
        -0.04677499830722809
      ],
      "type": "VEC3"
    },
    {
      "bufferView": 2,
      "byteOffset": 786648,
      "componentType": 5126,
      "count": 65532,
      "max": [
        0.999369740486145,
        0.9963092803955078,
        0.9999998807907104
      ],
      "min": [
        -0.9837466478347778,
        -0.9955304861068726,
        -0.9752296805381775
      ],
      "type": "VEC3"
    },
    {
      "bufferView": 1,
      "byteOffset": 176,
      "componentType": 5126,
      "count": 65532,
      "max": [
        0.8518580198287964,
        0.8801530003547668
      ],
      "min": [
        0.252595990896225,
        0.13412000238895416
      ],
      "type": "VEC2"
    },
    {
      "bufferView": 0,
      "byteOffset": 88,
      "componentType": 5125,
      "count": 343881,
      "type": "SCALAR"
    },
    {
      "bufferView": 2,
      "byteOffset": 1573032,
      "componentType": 5126,
      "count": 65532,
      "max": [
        2.428330898284912,
        0.771606981754303,
        0.04868000000715256
      ],
      "min": [
        -5.065845012664795,
        -4.863399982452393,
        -0.04154900088906288
      ],
      "type": "VEC3"
    },
    {
      "bufferView": 2,
      "byteOffset": 2359416,
      "componentType": 5126,
      "count": 65532,
      "max": [
        0.9995721578598022,
        0.9999383091926575,
        1.0
      ],
      "min": [
        -0.9975543022155762,
        -0.997696578502655,
        -0.9926179647445679
      ],
      "type": "VEC3"
    },
    {
      "bufferView": 1,
      "byteOffset": 524432,
      "componentType": 5126,
      "count": 65532,
      "max": [
        0.937047004699707,
        0.9882680177688599
      ],
      "min": [
        0.18220099806785583,
        0.009100000374019146
      ],
      "type": "VEC2"
    },
    {
      "bufferView": 0,
      "byteOffset": 1375612,
      "componentType": 5125,
      "count": 328623,
      "type": "SCALAR"
    },
    {
      "bufferView": 2,
      "byteOffset": 3145800,
      "componentType": 5126,
      "count": 65532,
      "max": [
        1.9708130359649658,
        2.8492929935455322,
        0.04164300113916397
      ],
      "min": [
        -5.057046890258789,
        -4.849041938781738,
        -0.07030300050973892
      ],
      "type": "VEC3"
    },
    {
      "bufferView": 2,
      "byteOffset": 3932184,
      "componentType": 5126,
      "count": 65532,
      "max": [
        0.9993497133255005,
        0.9962091445922852,
        1.0
      ],
      "min": [
        -0.9885438084602356,
        -0.9979590773582458,
        -0.9098671674728394
      ],
      "type": "VEC3"
    },
    {
      "bufferView": 1,
      "byteOffset": 1048688,
      "componentType": 5126,
      "count": 65532,
      "max": [
        0.9294660091400146,
        0.9943519830703735
      ],
      "min": [
        0.009585999883711338,
        0.011366000398993492
      ],
      "type": "VEC2"
    },
    {
      "bufferView": 0,
      "byteOffset": 2690104,
      "componentType": 5125,
      "count": 347511,
      "type": "SCALAR"
    },
    {
      "bufferView": 2,
      "byteOffset": 4718568,
      "componentType": 5126,
      "count": 65532,
      "max": [
        5.510756015777588,
        4.438735008239746,
        0.07378199696540833
      ],
      "min": [
        -5.052196979522705,
        -4.854225158691406,
        -0.07108700275421143
      ],
      "type": "VEC3"
    },
    {
      "bufferView": 2,
      "byteOffset": 5504952,
      "componentType": 5126,
      "count": 65532,
      "max": [
        0.9988576769828796,
        0.9991904497146606,
        1.0
      ],
      "min": [
        -0.9999023675918579,
        -0.9991081953048706,
        -0.9995421767234802
      ],
      "type": "VEC3"
    },
    {
      "bufferView": 1,
      "byteOffset": 1572944,
      "componentType": 5126,
      "count": 65532,
      "max": [
        0.9210159778594971,
        0.999966025352478
      ],
      "min": [
        0.0006380000268109143,
        0.012125999666750431
      ],
      "type": "VEC2"
    },
    {
      "bufferView": 0,
      "byteOffset": 4080148,
      "componentType": 5125,
      "count": 317562,
      "type": "SCALAR"
    },
    {
      "bufferView": 2,
      "byteOffset": 6291336,
      "componentType": 5126,
      "count": 65532,
      "max": [
        2.5164949893951416,
        4.725283145904541,
        0.04722600057721138
      ],
      "min": [
        -5.090126037597656,
        -4.855876922607422,
        -0.08865900337696075
      ],
      "type": "VEC3"
    },
    {
      "bufferView": 2,
      "byteOffset": 7077720,
      "componentType": 5126,
      "count": 65532,
      "max": [
        0.9993865489959717,
        0.9974715113639832,
        0.9999999403953552
      ],
      "min": [
        -0.9981124401092529,
        -0.9998274445533752,
        -0.9972726702690125
      ],
      "type": "VEC3"
    },
    {
      "bufferView": 1,
      "byteOffset": 2097200,
      "componentType": 5126,
      "count": 65532,
      "max": [
        0.9644690155982971,
        1.0
      ],
      "min": [
        0.009642000310122967,
        0.024684999138116837
      ],
      "type": "VEC2"
    },
    {
      "bufferView": 0,
      "byteOffset": 5350396,
      "componentType": 5125,
      "count": 326664,
      "type": "SCALAR"
    },
    {
      "bufferView": 2,
      "byteOffset": 7864104,
      "componentType": 5126,
      "count": 65532,
      "max": [
        5.510223865509033,
        4.736487865447998,
        0.06587599962949753
      ],
      "min": [
        -5.059091091156006,
        -3.611841917037964,
        -0.08951199799776077
      ],
      "type": "VEC3"
    },
    {
      "bufferView": 2,
      "byteOffset": 8650488,
      "componentType": 5126,
      "count": 65532,
      "max": [
        0.9998332858085632,
        0.9989499449729919,
        1.0
      ],
      "min": [
        -0.9998779892921448,
        -0.999502956867218,
        -0.9997105002403259
      ],
      "type": "VEC3"
    },
    {
      "bufferView": 1,
      "byteOffset": 2621456,
      "componentType": 5126,
      "count": 65532,
      "max": [
        0.9569119811058044,
        0.9999909996986389
      ],
      "min": [
        0.009312000125646591,
        0.0017310000257566571
      ],
      "type": "VEC2"
    },
    {
      "bufferView": 0,
      "byteOffset": 6657052,
      "componentType": 5125,
      "count": 301920,
      "type": "SCALAR"
    },
    {
      "bufferView": 2,
      "byteOffset": 9436872,
      "componentType": 5126,
      "count": 65532,
      "max": [
        5.50632905960083,
        4.701247215270996,
        0.04272399842739105
      ],
      "min": [
        -1.23893404006958,
        -3.1810379028320313,
        -0.09225799888372421
      ],
      "type": "VEC3"
    },
    {
      "bufferView": 2,
      "byteOffset": 10223256,
      "componentType": 5126,
      "count": 65532,
      "max": [
        0.9920402765274048,
        0.9952727556228638,
        0.9999999403953552
      ],
      "min": [
        -0.9998113512992859,
        -0.9994706511497498,
        -0.9605957865715027
      ],
      "type": "VEC3"
    },
    {
      "bufferView": 1,
      "byteOffset": 3145712,
      "componentType": 5126,
      "count": 65532,
      "max": [
        0.9377859830856323,
        0.9757009744644165
      ],
      "min": [
        0.06324800103902817,
        0.007660999894142151
      ],
      "type": "VEC2"
    },
    {
      "bufferView": 0,
      "byteOffset": 7864732,
      "componentType": 5125,
      "count": 348294,
      "type": "SCALAR"
    },
    {
      "bufferView": 2,
      "byteOffset": 11009640,
      "componentType": 5126,
      "count": 65532,
      "max": [
        5.550890922546387,
        2.45776104927063,
        0.07581599801778793
      ],
      "min": [
        -3.539954900741577,
        -4.877686977386475,
        -0.05517200008034706
      ],
      "type": "VEC3"
    },
    {
      "bufferView": 2,
      "byteOffset": 11796024,
      "componentType": 5126,
      "count": 65532,
      "max": [
        0.9999436140060425,
        0.9997463226318359,
        1.0
      ],
      "min": [
        -0.9999144673347473,
        -0.9994193315505981,
        -0.999571681022644
      ],
      "type": "VEC3"
    },
    {
      "bufferView": 1,
      "byteOffset": 3669968,
      "componentType": 5126,
      "count": 65532,
      "max": [
        0.9673619866371155,
        1.0
      ],
      "min": [
        0.018955999985337257,
        0.0007590000168420374
      ],
      "type": "VEC2"
    },
    {
      "bufferView": 0,
      "byteOffset": 9257908,
      "componentType": 5125,
      "count": 297633,
      "type": "SCALAR"
    },
    {
      "bufferView": 2,
      "byteOffset": 12582408,
      "componentType": 5126,
      "count": 65532,
      "max": [
        5.5151801109313965,
        4.730481147766113,
        0.0497249998152256
      ],
      "min": [
        -1.1418609619140625,
        -4.7248358726501465,
        -0.08989100158214569
      ],
      "type": "VEC3"
    },
    {
      "bufferView": 2,
      "byteOffset": 13368792,
      "componentType": 5126,
      "count": 65532,
      "max": [
        0.9991909861564636,
        0.9992232918739319,
        0.9999999403953552
      ],
      "min": [
        -0.9994606971740723,
        -0.9990893602371216,
        -0.9973800778388977
      ],
      "type": "VEC3"
    },
    {
      "bufferView": 1,
      "byteOffset": 4194224,
      "componentType": 5126,
      "count": 65532,
      "max": [
        0.9968760013580322,
        1.0
      ],
      "min": [
        0.00014899999951012433,
        0.000598000013269484
      ],
      "type": "VEC2"
    },
    {
      "bufferView": 0,
      "byteOffset": 10448440,
      "componentType": 5125,
      "count": 259503,
      "type": "SCALAR"
    },
    {
      "bufferView": 2,
      "byteOffset": 14155176,
      "componentType": 5126,
      "count": 63467,
      "max": [
        5.511404991149902,
        4.736636161804199,
        0.17473599314689636
      ],
      "min": [
        -2.0556700229644775,
        -4.858658790588379,
        -0.09225799888372421
      ],
      "type": "VEC3"
    },
    {
      "bufferView": 2,
      "byteOffset": 14916780,
      "componentType": 5126,
      "count": 63467,
      "max": [
        0.9998721480369568,
        0.9999400973320007,
        0.9999999403953552
      ],
      "min": [
        -0.9994791150093079,
        -0.9995604157447815,
        -0.9980570673942566
      ],
      "type": "VEC3"
    },
    {
      "bufferView": 1,
      "byteOffset": 4718480,
      "componentType": 5126,
      "count": 63467,
      "max": [
        0.9984269738197327,
        1.0
      ],
      "min": [
        0.008779999800026417,
        0.0
      ],
      "type": "VEC2"
    },
    {
      "bufferView": 0,
      "byteOffset": 11486452,
      "componentType": 5125,
      "count": 198102,
      "type": "SCALAR"
    }
  ],
  "asset": {
    "extras": {
      "author": "joeshu (https://sketchfab.com/joeshu)",
      "license": "CC-BY-4.0 (http://creativecommons.org/licenses/by/4.0/)",
      "source": "https://sketchfab.com/3d-models/ground-bricks-02-scan-327cd2b0aa7849048de7b01a61d5bc7b",
      "title": "Ground Bricks 02 Scan"
    },
    "generator": "Sketchfab-13.66.0",
    "version": "2.0"
  },
  "bufferViews": [
    {
      "buffer": 0,
      "byteLength": 12278860,
      "name": "floatBufferViews",
      "target": 34963
    },
    {
      "buffer": 0,
      "byteLength": 5226216,
      "byteOffset": 12278860,
      "byteStride": 8,
      "name": "floatBufferViews",
      "target": 34962
    },
    {
      "buffer": 0,
      "byteLength": 15678384,
      "byteOffset": 17505076,
      "byteStride": 12,
      "name": "floatBufferViews",
      "target": 34962
    }
  ],
  "buffers": [
    {
      "byteLength": 33183460,
      "uri": "scene.bin"
    }
  ],
  "images": [
    {
      "uri": "textures/mesh_baseColor.jpeg"
    }
  ],
  "materials": [
    {
      "doubleSided": true,
      "name": "mesh",
      "pbrMetallicRoughness": {
        "baseColorTexture": {
          "index": 0
        },
        "metallicFactor": 0.0
      }
    }
  ],
  "meshes": [
    {
      "name": "Object_0",
      "primitives": [
        {
          "attributes": {
            "POSITION": 0,
            "TEXCOORD_0": 1
          },
          "indices": 2,
          "material": 0,
          "mode": 1
        }
      ]
    },
    {
      "name": "Object_1",
      "primitives": [
        {
          "attributes": {
            "NORMAL": 4,
            "POSITION": 3,
            "TEXCOORD_0": 5
          },
          "indices": 6,
          "material": 0,
          "mode": 4
        }
      ]
    },
    {
      "name": "Object_2",
      "primitives": [
        {
          "attributes": {
            "NORMAL": 8,
            "POSITION": 7,
            "TEXCOORD_0": 9
          },
          "indices": 10,
          "material": 0,
          "mode": 4
        }
      ]
    },
    {
      "name": "Object_3",
      "primitives": [
        {
          "attributes": {
            "NORMAL": 12,
            "POSITION": 11,
            "TEXCOORD_0": 13
          },
          "indices": 14,
          "material": 0,
          "mode": 4
        }
      ]
    },
    {
      "name": "Object_4",
      "primitives": [
        {
          "attributes": {
            "NORMAL": 16,
            "POSITION": 15,
            "TEXCOORD_0": 17
          },
          "indices": 18,
          "material": 0,
          "mode": 4
        }
      ]
    },
    {
      "name": "Object_5",
      "primitives": [
        {
          "attributes": {
            "NORMAL": 20,
            "POSITION": 19,
            "TEXCOORD_0": 21
          },
          "indices": 22,
          "material": 0,
          "mode": 4
        }
      ]
    },
    {
      "name": "Object_6",
      "primitives": [
        {
          "attributes": {
            "NORMAL": 24,
            "POSITION": 23,
            "TEXCOORD_0": 25
          },
          "indices": 26,
          "material": 0,
          "mode": 4
        }
      ]
    },
    {
      "name": "Object_7",
      "primitives": [
        {
          "attributes": {
            "NORMAL": 28,
            "POSITION": 27,
            "TEXCOORD_0": 29
          },
          "indices": 30,
          "material": 0,
          "mode": 4
        }
      ]
    },
    {
      "name": "Object_8",
      "primitives": [
        {
          "attributes": {
            "NORMAL": 32,
            "POSITION": 31,
            "TEXCOORD_0": 33
          },
          "indices": 34,
          "material": 0,
          "mode": 4
        }
      ]
    },
    {
      "name": "Object_9",
      "primitives": [
        {
          "attributes": {
            "NORMAL": 36,
            "POSITION": 35,
            "TEXCOORD_0": 37
          },
          "indices": 38,
          "material": 0,
          "mode": 4
        }
      ]
    },
    {
      "name": "Object_10",
      "primitives": [
        {
          "attributes": {
            "NORMAL": 40,
            "POSITION": 39,
            "TEXCOORD_0": 41
          },
          "indices": 42,
          "material": 0,
          "mode": 4
        }
      ]
    }
  ],
  "nodes": [
    {
      "children": [
        1
      ],
      "matrix": [
        1.0,
        0.0,
        0.0,
        0.0,
        0.0,
        2.220446049250313e-16,
        -1.0,
        0.0,
        0.0,
        1.0,
        2.220446049250313e-16,
        0.0,
        0.0,
        0.0,
        0.0,
        1.0
      ],
      "name": "Sketchfab_model"
    },
    {
      "children": [
        2,
        3,
        4,
        5,
        6,
        7,
        8,
        9,
        10,
        11,
        12
      ],
      "name": "mesh_s.obj.cleaner.materialmerger.gles"
    },
    {
      "mesh": 0,
      "name": "Object_2"
    },
    {
      "mesh": 1,
      "name": "Object_3"
    },
    {
      "mesh": 2,
      "name": "Object_4"
    },
    {
      "mesh": 3,
      "name": "Object_5"
    },
    {
      "mesh": 4,
      "name": "Object_6"
    },
    {
      "mesh": 5,
      "name": "Object_7"
    },
    {
      "mesh": 6,
      "name": "Object_8"
    },
    {
      "mesh": 7,
      "name": "Object_9"
    },
    {
      "mesh": 8,
      "name": "Object_10"
    },
    {
      "mesh": 9,
      "name": "Object_11"
    },
    {
      "mesh": 10,
      "name": "Object_12"
    }
  ],
  "samplers": [
    {
      "magFilter": 9729,
      "minFilter": 9987,
      "wrapS": 10497,
      "wrapT": 10497
    }
  ],
  "scene": 0,
  "scenes": [
    {
      "name": "Sketchfab_Scene",
      "nodes": [
        0
      ]
    }
  ],
  "textures": [
    {
      "sampler": 0,
      "source": 0
    }
  ]
}
